<?xml version="1.0" encoding="UTF-8"?><svg xmlns="http://www.w3.org/2000/svg" xmlns:xlink="http://www.w3.org/1999/xlink" viewBox="0 0 141.07 141.07"><defs><style>.cls-1{stroke:url(#linear-gradient);}.cls-1,.cls-2,.cls-3,.cls-4,.cls-5,.cls-6,.cls-7{fill:none;stroke-linecap:round;stroke-miterlimit:10;}.cls-2{stroke:url(#linear-gradient-5);}.cls-3{stroke:url(#linear-gradient-7);}.cls-4{stroke:url(#linear-gradient-6);}.cls-5{stroke:url(#linear-gradient-2);}.cls-6{stroke:url(#linear-gradient-4);}.cls-7{stroke:url(#linear-gradient-3);}.cls-8{mix-blend-mode:screen;}.cls-9{isolation:isolate;}</style><linearGradient id="linear-gradient" x1="0" y1="70.53" x2="141.07" y2="70.53" gradientUnits="userSpaceOnUse"><stop offset="0" stop-color="#2e509f"/><stop offset="1" stop-color="#6bc3c6"/></linearGradient><linearGradient id="linear-gradient-2" x1="9.08" y1="69.32" x2="134.42" y2="69.32" xlink:href="#linear-gradient"/><linearGradient id="linear-gradient-3" x1="18.17" y1="68.1" x2="127.77" y2="68.1" xlink:href="#linear-gradient"/><linearGradient id="linear-gradient-4" x1="27.25" y1="66.88" x2="121.12" y2="66.88" xlink:href="#linear-gradient"/><linearGradient id="linear-gradient-5" x1="36.33" y1="65.67" x2="114.47" y2="65.67" xlink:href="#linear-gradient"/><linearGradient id="linear-gradient-6" x1="45.41" y1="64.45" x2="107.82" y2="64.45" xlink:href="#linear-gradient"/><linearGradient id="linear-gradient-7" x1="54.5" y1="63.23" x2="101.17" y2="63.23" xlink:href="#linear-gradient"/></defs><g class="cls-9"><g id="Layer_2"><g id="Layer_1-2"><g class="cls-8"><polygon class="cls-1" points="140.36 .71 .97 38.06 103.01 140.1 140.36 .71"/><polygon class="cls-5" points="133.71 7.36 10.05 40.49 100.58 131.02 133.71 7.36"/><polygon class="cls-7" points="127.06 14.01 19.13 42.93 98.14 121.94 127.06 14.01"/><polygon class="cls-6" points="120.41 20.65 28.21 45.36 95.71 112.85 120.41 20.65"/><polygon class="cls-2" points="113.77 27.3 37.3 47.79 93.28 103.77 113.77 27.3"/><polygon class="cls-4" points="107.12 33.95 46.38 50.23 90.84 94.69 107.12 33.95"/><polygon class="cls-3" points="100.47 40.6 55.46 52.66 88.41 85.61 100.47 40.6"/></g></g></g></g></svg>