<?xml version="1.0" encoding="UTF-8"?><svg id="Layer_2" xmlns="http://www.w3.org/2000/svg" xmlns:xlink="http://www.w3.org/1999/xlink" viewBox="0 0 339.15 625.84"><defs><style>.cls-1{fill:none;stroke:url(#linear-gradient);stroke-miterlimit:10;}</style><linearGradient id="linear-gradient" x1="0" y1="312.92" x2="339.15" y2="312.92" gradientUnits="userSpaceOnUse"><stop offset="0" stop-color="#24378d"/><stop offset="1" stop-color="#02afdc"/></linearGradient></defs><g id="Layer_1-2"><path class="cls-1" d="M177.91,304.09l15.22,8.79-15.22,8.79v-17.58Zm-19.94,17.39v-17.2s-14.89,8.6-14.89,8.6l14.89,8.6Zm-24.92,25.96l14.89-8.6-14.89-8.6v17.2Zm25.17,26.4v-18.06s-15.64,9.03-15.64,9.03l15.64,9.03Zm19.4,.27l16.11-9.3-16.11-9.3v18.6Zm25.65-26.1v-18.32s-15.87,9.16-15.87,9.16l15.87,9.16Zm0-51.95v-18.3s-15.85,9.15-15.85,9.15l15.85,9.15Zm-70.42-.18l15.53-8.97-15.53-8.97v17.93Zm-19.85,51.55v-17.17s-14.87,8.59-14.87,8.59l14.87,8.59Zm19.6,52.74l16.27-9.39-16.27-9.39v18.79Zm70.89,.14v-19.06s-16.51,9.53-16.51,9.53l16.51,9.53Zm19.03-52.03l16.34-9.43-16.34-9.44v18.87Zm-45.1-77.68l16.72-9.65-16.72-9.65v19.31Zm-19.09-.43v-18.45s-15.98,9.22-15.98,9.22l15.98,9.22Zm-45.21,25.56v-17.64s-15.28,8.82-15.28,8.82l15.28,8.82Zm-25.23,26.06l15.43-8.91-15.43-8.91v17.82Zm-.07,52.05l15.65-9.03-15.65-9.04v18.07Zm25.56,26.21v-18.55s-16.06,9.28-16.06,9.28l16.06,9.27Zm45.6,27.06v-20.73s-17.94,10.36-17.94,10.36l17.94,10.36Zm17.91,.18l18.26-10.54-18.26-10.54v21.08Zm45.61-27.07l16.34-9.43-16.34-9.44v18.87Zm25.89-25.96v-18.88s-16.35,9.44-16.35,9.44l16.35,9.44Zm-.06-52.04v-18.66s-16.16,9.33-16.16,9.33l16.16,9.33Zm-25.7-26.07l15.97-9.22-15.97-9.22v18.44Zm-.47-51.11l17.4-10.04-17.4-10.04v20.09Zm-18.35,.06v-20.21s-17.51,10.11-17.51,10.11l17.51,10.11Zm-71.02-1.07l15.66-9.04-15.66-9.04v18.08Zm-19.98-.76v-16.55s-14.34,8.27-14.34,8.27l14.34,8.28Zm-24.87,26.52l15.3-8.84-15.3-8.84v17.67Zm-19.48,52.46v-18.73s-16.22,9.36-16.22,9.36l16.22,9.36Zm-.08,51.8v-18.46s-15.98,9.23-15.98,9.23l15.98,9.23Zm19.17,52.2l16.46-9.5-16.46-9.5v19Zm26.1,26.2v-19.47s-16.86,9.74-16.86,9.74l16.86,9.73Zm18.14,1.05l18.68-10.78-18.68-10.78v21.56Zm72.79,.65v-22.86s-19.79,11.43-19.79,11.43l19.79,11.43Zm17.18-.68l18.62-10.75-18.62-10.75v21.5Zm26.87-26.9v-19.64s-17.01,9.82-17.01,9.82l17.01,9.82Zm18.79-52.19l16.56-9.56-16.56-9.56v19.12Zm26.27-25.54v-19.96s-17.29,9.98-17.29,9.98l17.29,9.98Zm-26.21-26.5l16.37-9.45-16.37-9.45v18.9Zm-18.81-51.5v-19.77s-17.13,9.89-17.13,9.89l17.13,9.89Zm.04-51.86v-19.92s-17.26,9.96-17.26,9.96l17.26,9.96Zm-71.24-.4l16.56-9.56-16.56-9.56v19.12Zm-19.4-.78v-17.55s-15.2,8.77-15.2,8.77l15.2,8.77Zm-69.2-1.56l12.5-7.22-12.5-7.21v14.43Zm-20.73,53.52v-17.61s-15.26,8.81-15.26,8.81l15.26,8.81Zm-25.62,26.77l16.65-9.61-16.65-9.61v19.22Zm116.94,183.33v-22.36s-19.36,11.18-19.36,11.18l19.36,11.18Zm16.8,.47l20.17-11.65-20.17-11.65v23.29Zm72.78-1.1v-21.11s-18.28,10.56-18.28,10.56l18.28,10.55Zm18.43-53.04l16.37-9.45-16.37-9.45v18.9Zm25.85-26.05v-18.72s-16.21,9.36-16.21,9.36l16.21,9.36Zm18.42-50.63l18.48-10.67-18.48-10.67v21.34Zm-18.42-53.24v-18.72s-16.21,9.36-16.21,9.36l16.21,9.36Zm-25.89-25.81l16.48-9.51-16.48-9.51v19.02Zm-44.88-78.07l16.18-9.34-16.18-9.34v18.69Zm-19.27-.14v-18.41s-15.95,9.21-15.95,9.21l15.95,9.21Zm-69.56-1.79l12.85-7.42-12.85-7.42v14.83Zm-22.1-1.18v-12.47s-10.8,6.24-10.8,6.24l10.8,6.24Zm-44.5,26.77v-14.08s-12.2,7.04-12.2,7.04l12.2,7.04Zm-23.85,27.23l14.39-8.31-14.39-8.31v16.62Zm89.26,260.84l16.45-9.5-16.45-9.5v19Zm71.69,1.3v-21.6s-18.71,10.8-18.71,10.8l18.71,10.8Zm17.83-.55l17.75-10.25-17.75-10.25v20.5Zm45.4-26.72l16.45-9.5-16.45-9.5v19Zm25.82-26.21v-18.51s-16.03,9.26-16.03,9.26l16.03,9.25Zm18.94-51.31l17.09-9.87-17.09-9.87v19.74Zm26.44-25.19v-21.3s-18.44,10.65-18.44,10.65l18.44,10.65Zm0-52.04v-21.08s-18.25,10.54-18.25,10.54l18.25,10.54Zm-26.34-26.79l16.82-9.71-16.82-9.72v19.43Zm-19.07-52.45v-18.38s-15.92,9.19-15.92,9.19l15.92,9.19Zm-25.64-25.9l16.02-9.26-16.02-9.25v18.51Zm.97-53.62l13.12-7.57-13.12-7.57v15.14Zm-20.84,.69v-16.52s-14.31,8.26-14.31,8.26l14.31,8.26Zm-69.24-.47l13.5-7.79-13.5-7.79v15.59Zm-21.61-1.08v-13.42s-11.63,6.71-11.63,6.71l11.63,6.71Zm-66.35-2.36l7.52-4.35-7.52-4.34v8.69Zm-25.27-.52v-7.66s-6.63,3.83-6.63,3.83l6.63,3.83Zm-20.47,27.81l9.82-5.67-9.82-5.67v11.34Zm112.78,339.79v-15.82s-13.7,7.91-13.7,7.91l13.7,7.91Zm20.3,.96l15.35-8.87-15.35-8.86v17.73Zm70.08-.21v-17.31s-14.99,8.66-14.99,8.66l14.99,8.66Zm20.55-.96l13.32-7.7-13.32-7.69v15.39Zm24.18-25.44v-16.44s-14.24,8.22-14.24,8.22l14.24,8.22Zm20.21-51.45l15.07-8.7-15.07-8.7v17.4Zm25.47-25.21v-18.9s-16.37,9.45-16.37,9.45l16.37,9.45Zm0-155.8v-18.9s-16.37,9.45-16.37,9.45l16.37,9.45Zm-25.53-26.61l15.25-8.8-15.25-8.8v17.61Zm-20.31-52.78v-15.91s-13.77,7.95-13.77,7.95l13.77,7.95Zm-1.43-54.4v-10.96s-9.5,5.48-9.5,5.48l9.5,5.48Zm-66.81,.88l11.02-6.36-11.02-6.36v12.73Zm-22.71-.12v-12.48s-10.81,6.24-10.81,6.24l10.81,6.24Zm-66.13-1.8l7.69-4.44-7.69-4.44v8.88Zm-25.47-1.06v-6.75s-5.84,3.37-5.84,3.37l5.84,3.38Zm-63.45-.71l4.6-2.66-4.6-2.66v5.32Zm-24.89,55.43v-12.32s-10.67,6.16-10.67,6.16l10.67,6.16Zm179.97,363.65v-12.58s-10.89,6.29-10.89,6.29l10.89,6.29Zm22.7,.04l10.95-6.33-10.95-6.32v12.65Zm66.52-1.29v-10.08s-8.73,5.04-8.73,5.04l8.73,5.04Zm23.02-49.96l12.15-7.02-12.15-7.01v14.03Zm23.45-25.34v-15.28s-13.23,7.64-13.23,7.64l13.23,7.64Zm.16-259.39v-15.82s-13.7,7.91-13.7,7.91l13.7,7.91Zm-23.73-26.66l12.5-7.22-12.5-7.22v14.44Zm-43.03-81.26l6.69-3.86-6.69-3.86v7.72Zm-25.41,.2v-8.13s-7.04,4.06-7.04,4.06l7.04,4.06Zm-64.48-.31l6.51-3.76-6.51-3.76v7.52Zm-26.03-.66v-6.19s-5.37,3.1-5.37,3.1l5.37,3.1Zm-62.93-1.07l3.51-2.03-3.51-2.03v4.06Zm-27.77-.22v-3.62s-3.14,1.81-3.14,1.81l3.14,1.81Zm-44.39,26.98v-5.66s-4.9,2.83-4.9,2.83l4.9,2.83ZM.5,161.57l7.77-4.49-7.77-4.48v8.97Zm180.61,414.22l5.63-3.25-5.63-3.25v6.5Zm63.94,.38v-7.27s-6.29,3.63-6.29,3.63l6.29,3.64Zm25.99-.35l5.68-3.28-5.68-3.28v6.56Zm44.64-25.38l6.69-3.86-6.69-3.86v7.72Zm20.06-24.9v-9.85s-8.53,4.92-8.53,4.92l8.53,4.93Zm.53-362.61v-11.67s-10.1,5.83-10.1,5.83l10.1,5.83Zm-21.13-26.99l8.32-4.81-8.32-4.8v9.61Zm1.77-55l3.01-1.74-3.01-1.73v3.47Zm-27.8,.3v-4.07s-3.53,2.04-3.53,2.04l3.53,2.04Zm-62.4,.14l3.78-2.18-3.78-2.18v4.36Zm-27.46,0v-4.36s-3.78,2.18-3.78,2.18l3.78,2.18Zm-62.15-.57l2.78-1.61-2.78-1.61v3.21Zm-28.24-.2v-2.81s-2.44,1.41-2.44,1.41l2.44,1.41Zm-61.45-.23l2.03-1.18-2.03-1.17v2.35Zm-28.56,.12v-2.58s-2.24,1.29-2.24,1.29l2.24,1.29ZM1.83,107.33l3.77-2.18-3.77-2.18v4.36Zm196.98,492.62v-2.9s-2.52,1.45-2.52,1.45l2.52,1.45Zm28.23,.14l2.75-1.59-2.75-1.59v3.17Zm61.63-.3v-2.58s-2.24,1.29-2.24,1.29l2.24,1.29Zm28.71-.38l1.57-.91-1.57-.91v1.81Zm16.56-25.07v-3.6s-3.12,1.8-3.12,1.8l3.12,1.8Zm.63-466.29v-5.79s-5.01,2.89-5.01,2.89l5.01,2.9Zm-1.26-54.12v-1.42s-1.23,.71-1.23,.71l1.23,.71Zm-61.02,.41l1.94-1.12-1.94-1.12v2.23Zm-28.69,0v-2.23s-1.94,1.12-1.94,1.12l1.94,1.12Zm-61.26,0l1.94-1.12-1.94-1.12v2.23Zm-28.75-.11v-2.02s-1.75,1.01-1.75,1.01l1.75,1.01Zm-61.07-.11l1.57-.9-1.57-.91v1.81Zm-28.99-.1v-1.62s-1.4,.81-1.4,.81l1.4,.81Zm-60.93,.05l1.48-.85-1.48-.86v1.71ZM243.24,624.98v-1.01s-.87,.51-.87,.51l.87,.51Zm29.42-.04l.81-.47-.81-.47v.93ZM317.66,27.68l.74-.42-.74-.43v.85Zm-29.4,.16v-1.17s-1.01,.58-1.01,.58l1.01,.58Zm-60.6-.08l.88-.5-.88-.51v1.01Zm-29.37,.04v-1.09s-.94,.54-.94,.54l.94,.54Zm-60.59,0l.95-.54-.95-.54v1.09Zm-29.3,.09v-1.28s-1.1,.64-1.1,.64l1.1,.64Zm-60.67-.06l1-.58-1-.58v1.16Zm-29.33-.02v-1.11s-.96,.56-.96,.56l.96,.55ZM92.79,1.72l.75-.43-.75-.43v.86Zm-29.5-.02V.89s-.7,.41-.7,.41l.7,.41Zm-60.42-.02l.68-.39-.68-.39v.78Z"/></g></svg>