<?xml version="1.0" encoding="UTF-8"?><svg xmlns="http://www.w3.org/2000/svg" xmlns:xlink="http://www.w3.org/1999/xlink" viewBox="0 0 288.34 238.44"><defs><style>.cls-1{stroke:url(#linear-gradient);}.cls-1,.cls-2,.cls-3,.cls-4,.cls-5,.cls-6,.cls-7,.cls-8,.cls-9,.cls-10,.cls-11,.cls-12,.cls-13,.cls-14{fill:none;stroke-linecap:round;stroke-miterlimit:10;}.cls-2{stroke:url(#linear-gradient-8);}.cls-3{stroke:url(#linear-gradient-9);}.cls-4{stroke:url(#linear-gradient-5);}.cls-5{stroke:url(#linear-gradient-7);}.cls-6{stroke:url(#linear-gradient-6);}.cls-7{stroke:url(#linear-gradient-2);}.cls-8{stroke:url(#linear-gradient-4);}.cls-9{stroke:url(#linear-gradient-3);}.cls-15{mix-blend-mode:screen;}.cls-10{stroke:url(#linear-gradient-14);}.cls-11{stroke:url(#linear-gradient-10);}.cls-12{stroke:url(#linear-gradient-13);}.cls-13{stroke:url(#linear-gradient-12);}.cls-14{stroke:url(#linear-gradient-11);}.cls-16{isolation:isolate;}</style><linearGradient id="linear-gradient" x1="147.27" y1="167.91" x2="288.34" y2="167.91" gradientUnits="userSpaceOnUse"><stop offset="0" stop-color="#6bc3c6"/><stop offset="1" stop-color="#2e509f"/></linearGradient><linearGradient id="linear-gradient-2" x1="153.92" y1="166.69" x2="279.25" y2="166.69" xlink:href="#linear-gradient"/><linearGradient id="linear-gradient-3" x1="160.57" y1="165.48" x2="270.17" y2="165.48" xlink:href="#linear-gradient"/><linearGradient id="linear-gradient-4" x1="167.21" y1="164.26" x2="261.09" y2="164.26" xlink:href="#linear-gradient"/><linearGradient id="linear-gradient-5" x1="173.86" y1="163.04" x2="252" y2="163.04" xlink:href="#linear-gradient"/><linearGradient id="linear-gradient-6" x1="180.51" y1="161.83" x2="242.92" y2="161.83" xlink:href="#linear-gradient"/><linearGradient id="linear-gradient-7" x1="187.16" y1="160.61" x2="233.84" y2="160.61" xlink:href="#linear-gradient"/><linearGradient id="linear-gradient-8" x1="0" y1="70.53" x2="141.07" y2="70.53" gradientUnits="userSpaceOnUse"><stop offset="0" stop-color="#2e509f"/><stop offset="1" stop-color="#6bc3c6"/></linearGradient><linearGradient id="linear-gradient-9" x1="9.08" y1="69.32" x2="134.42" y2="69.32" xlink:href="#linear-gradient-8"/><linearGradient id="linear-gradient-10" x1="18.17" y1="68.1" x2="127.77" y2="68.1" xlink:href="#linear-gradient-8"/><linearGradient id="linear-gradient-11" x1="27.25" y1="66.88" x2="121.12" y2="66.88" xlink:href="#linear-gradient-8"/><linearGradient id="linear-gradient-12" x1="36.33" y1="65.67" x2="114.47" y2="65.67" xlink:href="#linear-gradient-8"/><linearGradient id="linear-gradient-13" x1="45.41" y1="64.45" x2="107.82" y2="64.45" xlink:href="#linear-gradient-8"/><linearGradient id="linear-gradient-14" x1="54.5" y1="63.23" x2="101.17" y2="63.23" xlink:href="#linear-gradient-8"/></defs><g class="cls-16"><g id="Layer_2"><g id="Layer_1-2"><g><g class="cls-15"><polygon class="cls-1" points="147.97 98.08 185.33 237.48 287.37 135.43 147.97 98.08"/><polygon class="cls-7" points="154.62 104.73 187.76 228.4 278.29 137.87 154.62 104.73"/><polygon class="cls-9" points="161.27 111.38 190.19 219.31 269.2 140.3 161.27 111.38"/><polygon class="cls-8" points="167.92 118.03 192.63 210.23 260.12 142.73 167.92 118.03"/><polygon class="cls-4" points="174.57 124.68 195.06 201.15 251.04 145.17 174.57 124.68"/><polygon class="cls-6" points="181.22 131.33 197.49 192.06 241.96 147.6 181.22 131.33"/><polygon class="cls-5" points="187.87 137.98 199.93 182.98 232.87 150.04 187.87 137.98"/></g><g class="cls-15"><polygon class="cls-2" points="140.36 .71 .97 38.06 103.01 140.1 140.36 .71"/><polygon class="cls-3" points="133.71 7.36 10.05 40.49 100.58 131.02 133.71 7.36"/><polygon class="cls-11" points="127.06 14.01 19.13 42.93 98.14 121.94 127.06 14.01"/><polygon class="cls-14" points="120.41 20.65 28.21 45.36 95.71 112.85 120.41 20.65"/><polygon class="cls-13" points="113.77 27.3 37.3 47.79 93.28 103.77 113.77 27.3"/><polygon class="cls-12" points="107.12 33.95 46.38 50.23 90.84 94.69 107.12 33.95"/><polygon class="cls-10" points="100.47 40.6 55.46 52.66 88.41 85.61 100.47 40.6"/></g></g></g></g></g></svg>