<?xml version="1.0" encoding="UTF-8"?><svg id="Layer_2" xmlns="http://www.w3.org/2000/svg" viewBox="0 0 329.29 606.17"><defs><style>.cls-1{fill:#dadada;}.cls-2{opacity:.32;}</style></defs><g id="Layer_1-2"><g class="cls-2"><polygon class="cls-1" points="190.44 252.7 175.25 261.47 175.25 243.92 190.44 252.7"/><polygon class="cls-1" points="156.41 261.73 140.77 252.7 156.41 243.66 156.41 261.73"/><polygon class="cls-1" points="146.91 277.92 131.49 286.81 131.49 269.02 146.91 277.92"/><polygon class="cls-1" points="200.14 236.6 184.34 227.47 200.14 218.35 200.14 236.6"/><polygon class="cls-1" points="147.32 227.47 131.29 236.73 131.29 218.22 147.32 227.47"/><polygon class="cls-1" points="112.8 287.08 96.93 277.92 112.8 268.75 112.8 287.08"/><polygon class="cls-1" points="234.4 227.47 218.8 236.48 218.8 218.47 234.4 227.47"/><polygon class="cls-1" points="191.93 202.25 174.5 212.32 174.5 192.19 191.93 202.25"/><polygon class="cls-1" points="157.1 212.49 139.37 202.25 157.1 192.02 157.1 212.49"/><polygon class="cls-1" points="112.8 236.64 96.93 227.47 112.8 218.31 112.8 236.64"/><polygon class="cls-1" points="103.53 252.7 87.66 261.86 87.66 243.53 103.53 252.7"/><polygon class="cls-1" points="103.41 303.14 87.71 312.2 87.71 294.08 103.41 303.14"/><polygon class="cls-1" points="243.89 211.48 227.9 202.25 243.89 193.03 243.89 211.48"/><polygon class="cls-1" points="234.91 177.03 218.54 186.49 218.54 167.58 234.91 177.03"/><polygon class="cls-1" points="200.92 187.51 182.78 177.03 200.92 166.56 200.92 187.51"/><polygon class="cls-1" points="149.45 177.03 130.22 188.13 130.22 165.93 149.45 177.03"/><polygon class="cls-1" points="113.54 187.48 95.45 177.03 113.54 166.59 113.54 187.48"/><polygon class="cls-1" points="103.96 202.25 87.44 211.8 87.44 192.71 103.96 202.25"/><polygon class="cls-1" points="69.19 261.98 53.1 252.7 69.19 243.41 69.19 261.98"/><polygon class="cls-1" points="60.46 277.92 43.67 287.61 43.67 268.22 60.46 277.92"/><polygon class="cls-1" points="69.13 312.32 53.23 303.14 69.13 293.96 69.13 312.32"/><polygon class="cls-1" points="277.95 202.25 262.55 211.15 262.55 193.36 277.95 202.25"/><polygon class="cls-1" points="243.48 160.34 228.72 151.81 243.48 143.29 243.48 160.34"/><polygon class="cls-1" points="192.85 151.81 174.05 162.67 174.05 140.96 192.85 151.81"/><polygon class="cls-1" points="157.73 163.12 138.13 151.81 157.73 140.5 157.73 163.12"/><polygon class="cls-1" points="104.78 151.81 87.03 162.07 87.03 141.57 104.78 151.81"/><polygon class="cls-1" points="69.13 211.43 53.23 202.25 69.13 193.08 69.13 211.43"/><polygon class="cls-1" points="59.76 227.47 44.02 236.57 44.02 218.38 59.76 227.47"/><polygon class="cls-1" points="26.12 288.28 8.18 277.92 26.12 267.55 26.12 288.28"/><polygon class="cls-1" points="59.76 328.36 44.02 337.45 44.02 319.27 59.76 328.36"/><polygon class="cls-1" points="286.9 185.11 272.92 177.03 286.9 168.96 286.9 185.11"/><polygon class="cls-1" points="276.29 151.81 263.38 159.27 263.38 144.36 276.29 151.81"/><polygon class="cls-1" points="232.92 126.59 219.54 134.32 219.54 118.87 232.92 126.59"/><polygon class="cls-1" points="200.2 135.82 184.22 126.59 200.2 117.37 200.2 135.82"/><polygon class="cls-1" points="148.74 126.59 130.57 137.08 130.57 116.11 148.74 126.59"/><polygon class="cls-1" points="113.25 136.55 96.01 126.59 113.25 116.64 113.25 136.55"/><polygon class="cls-1" points="69.15 161.04 53.18 151.81 69.15 142.59 69.15 161.04"/><polygon class="cls-1" points="59.64 177.03 44.08 186.02 44.08 168.05 59.64 177.03"/><polygon class="cls-1" points="25.68 237.06 9.07 227.47 25.68 217.89 25.68 237.06"/><polygon class="cls-1" points="0 242.35 0 263.04 17.91 252.7 0 242.35"/><polygon class="cls-1" points="0 292.9 0 313.37 17.73 303.14 0 292.9"/><polygon class="cls-1" points="25.59 337.79 9.25 328.36 25.59 318.92 25.59 337.79"/><polygon class="cls-1" points="319.93 177.03 307.08 184.45 307.08 169.61 319.93 177.03"/><polygon class="cls-1" points="285.37 132.01 275.98 126.59 285.37 121.17 285.37 132.01"/><polygon class="cls-1" points="272.25 101.37 265.4 105.33 265.4 97.42 272.25 101.37"/><polygon class="cls-1" points="241.42 106.33 232.83 101.37 241.42 96.41 241.42 106.33"/><polygon class="cls-1" points="189.18 101.37 175.88 109.05 175.88 93.69 189.18 101.37"/><polygon class="cls-1" points="156.16 109.98 141.25 101.37 156.16 92.76 156.16 109.98"/><polygon class="cls-1" points="102.66 101.37 88.09 109.78 88.09 92.97 102.66 101.37"/><polygon class="cls-1" points="68.14 108.85 55.2 101.37 68.14 93.9 68.14 108.85"/><polygon class="cls-1" points="58.48 126.59 44.65 134.58 44.65 118.61 58.48 126.59"/><polygon class="cls-1" points="25.02 185.48 10.39 177.03 25.02 168.58 25.02 185.48"/><polygon class="cls-1" points="16.18 202.25 .28 211.44 .28 193.08 16.18 202.25"/><polygon class="cls-1" points="16.18 353.58 .28 362.76 .28 344.4 16.18 353.58"/><polygon class="cls-1" points="329.29 157.64 319.19 151.81 329.29 145.99 329.29 157.64"/><polygon class="cls-1" points="316.71 126.59 308.69 131.23 308.69 121.96 316.71 126.59"/><polygon class="cls-1" points="283.28 77.95 280.17 76.15 283.28 74.36 283.28 77.95"/><polygon class="cls-1" points="227.76 76.15 222.12 79.41 222.12 72.89 227.76 76.15"/><polygon class="cls-1" points="197.39 80.52 189.84 76.15 197.39 71.79 197.39 80.52"/><polygon class="cls-1" points="143.68 76.15 133.1 82.26 133.1 70.05 143.68 76.15"/><polygon class="cls-1" points="111.05 82.3 100.41 76.15 111.05 70.01 111.05 82.3"/><polygon class="cls-1" points="54.92 76.15 46.44 81.05 46.44 71.26 54.92 76.15"/><polygon class="cls-1" points="24.08 133.41 12.28 126.59 24.08 119.78 24.08 133.41"/><polygon class="cls-1" points="14.15 151.81 1.3 159.23 1.3 144.39 14.15 151.81"/><polygon class="cls-1" points="327.38 103.9 323.01 101.37 327.38 98.85 327.38 103.9"/><polygon class="cls-1" points="312.97 76.15 310.56 77.54 310.56 74.76 312.97 76.15"/><polygon class="cls-1" points="268.6 50.93 267.22 51.73 267.22 50.13 268.6 50.93"/><polygon class="cls-1" points="239.23 52.09 237.22 50.93 239.23 49.77 239.23 52.09"/><polygon class="cls-1" points="183.18 50.93 178.88 53.41 178.88 48.45 183.18 50.93"/><polygon class="cls-1" points="153.02 54.09 147.55 50.93 153.02 47.78 153.02 54.09"/><polygon class="cls-1" points="97.02 50.93 90.91 54.46 90.91 47.4 97.02 50.93"/><polygon class="cls-1" points="65.66 54.12 60.15 50.93 65.66 47.75 65.66 54.12"/><polygon class="cls-1" points="22.31 79.9 15.81 76.15 22.31 72.4 22.31 79.9"/><polygon class="cls-1" points="11.11 101.37 2.82 106.15 2.82 96.59 11.11 101.37"/><polygon class="cls-1" points="326.16 51.34 325.45 50.93 326.16 50.52 326.16 51.34"/><polygon class="cls-1" points="224.47 25.71 223.76 26.12 223.76 25.3 224.47 25.71"/><polygon class="cls-1" points="195.3 26.44 194.04 25.71 195.3 24.99 195.3 26.44"/><polygon class="cls-1" points="138.26 25.71 135.82 27.12 135.82 24.31 138.26 25.71"/><polygon class="cls-1" points="108.4 27.25 105.73 25.71 108.4 24.17 108.4 27.25"/><polygon class="cls-1" points="50.71 25.71 48.54 26.97 48.54 24.46 50.71 25.71"/><polygon class="cls-1" points="20.65 26.59 19.13 25.71 20.65 24.83 20.65 26.59"/><polygon class="cls-1" points="7.6 50.93 4.57 52.68 4.57 49.18 7.6 50.93"/><polygon class="cls-1" points="93.51 .49 92.66 .98 92.66 0 93.51 .49"/><polygon class="cls-1" points="64.09 .94 63.3 .49 64.09 .04 64.09 .94"/><polygon class="cls-1" points="311.99 580.56 311.05 581.1 311.05 580.02 311.99 580.56"/><polygon class="cls-1" points="326.14 606.17 325.49 605.78 326.14 605.4 326.14 606.17"/></g></g></svg>