<?xml version="1.0" encoding="UTF-8"?><svg id="Layer_2" xmlns="http://www.w3.org/2000/svg" viewBox="0 0 122.79 224.49"><defs><style>.cls-1{fill:#dadada;}.cls-2{opacity:.32;}</style></defs><g id="Layer_1-2"><g class="cls-2"><polygon class="cls-1" points="57.82 115.43 52.34 112.27 57.82 109.1 57.82 115.43"/><polygon class="cls-1" points="70.35 112.27 64.99 115.36 64.99 109.17 70.35 112.27"/><polygon class="cls-1" points="73.96 106.02 68.6 102.92 73.96 99.83 73.96 106.02"/><polygon class="cls-1" points="70.53 93.58 64.9 96.83 64.9 90.34 70.53 93.58"/><polygon class="cls-1" points="57.93 96.93 52.13 93.58 57.93 90.24 57.93 96.93"/><polygon class="cls-1" points="54.41 102.92 48.7 106.22 48.7 99.63 54.41 102.92"/><polygon class="cls-1" points="54.4 121.61 48.7 124.9 48.7 118.31 54.4 121.61"/><polygon class="cls-1" points="74.03 124.83 68.45 121.61 74.03 118.38 74.03 124.83"/><polygon class="cls-1" points="86.52 102.92 81.17 106.01 81.17 99.84 86.52 102.92"/><polygon class="cls-1" points="74.12 87.62 68.27 84.24 74.12 80.87 74.12 87.62"/><polygon class="cls-1" points="54.56 84.24 48.62 87.67 48.62 80.82 54.56 84.24"/><polygon class="cls-1" points="41.78 106.32 35.9 102.92 41.78 99.53 41.78 106.32"/><polygon class="cls-1" points="58 134.42 51.98 130.95 58 127.47 58 134.42"/><polygon class="cls-1" points="70.61 130.95 64.86 134.26 64.86 127.63 70.61 130.95"/><polygon class="cls-1" points="86.62 121.61 81.12 124.78 81.12 118.43 86.62 121.61"/><polygon class="cls-1" points="90.2 115.47 84.65 112.27 90.2 109.06 90.2 115.47"/><polygon class="cls-1" points="90.22 96.83 84.6 93.58 90.22 90.34 90.22 96.83"/><polygon class="cls-1" points="86.81 84.24 81.03 87.58 81.03 80.91 86.81 84.24"/><polygon class="cls-1" points="71.08 74.9 64.63 78.63 64.63 71.18 71.08 74.9"/><polygon class="cls-1" points="58.18 78.7 51.62 74.9 58.18 71.11 58.18 78.7"/><polygon class="cls-1" points="41.78 87.64 35.9 84.24 41.78 80.85 41.78 87.64"/><polygon class="cls-1" points="38.34 93.58 32.46 96.98 32.46 90.19 38.34 93.58"/><polygon class="cls-1" points="38.3 112.27 32.48 115.62 32.48 108.91 38.3 112.27"/><polygon class="cls-1" points="41.73 124.92 35.99 121.61 41.73 118.29 41.73 124.92"/><polygon class="cls-1" points="41.9 143.9 35.64 140.29 41.9 136.67 41.9 143.9"/><polygon class="cls-1" points="54.8 140.29 48.5 143.92 48.5 136.65 54.8 140.29"/><polygon class="cls-1" points="74.05 143.54 68.41 140.29 74.05 137.03 74.05 143.54"/><polygon class="cls-1" points="86.39 140.29 81.24 143.26 81.24 137.31 86.39 140.29"/><polygon class="cls-1" points="90.18 134.12 84.68 130.95 90.18 127.77 90.18 134.12"/><polygon class="cls-1" points="103.02 112.27 97.19 115.63 97.19 108.9 103.02 112.27"/><polygon class="cls-1" points="106.46 106.27 100.67 102.92 106.46 99.58 106.46 106.27"/><polygon class="cls-1" points="102.97 93.58 97.22 96.9 97.22 90.26 102.97 93.58"/><polygon class="cls-1" points="90.32 78.32 84.4 74.9 90.32 71.49 90.32 78.32"/><polygon class="cls-1" points="87 65.56 80.93 69.07 80.93 62.06 87 65.56"/><polygon class="cls-1" points="74.41 69.44 67.69 65.56 74.41 61.69 74.41 69.44"/><polygon class="cls-1" points="55.35 65.56 48.23 69.67 48.23 61.45 55.35 65.56"/><polygon class="cls-1" points="42.05 69.43 35.35 65.56 42.05 61.7 42.05 69.43"/><polygon class="cls-1" points="38.5 74.9 32.38 78.44 32.38 71.37 38.5 74.9"/><polygon class="cls-1" points="25.62 97.02 19.67 93.58 25.62 90.15 25.62 97.02"/><polygon class="cls-1" points="22.39 102.92 16.17 106.52 16.17 99.33 22.39 102.92"/><polygon class="cls-1" points="25.6 115.66 19.71 112.27 25.6 108.87 25.6 115.66"/><polygon class="cls-1" points="38.53 130.95 32.37 134.5 32.37 127.39 38.53 130.95"/><polygon class="cls-1" points="102.79 130.95 97.31 134.11 97.31 127.78 102.79 130.95"/><polygon class="cls-1" points="106.52 125.06 100.53 121.61 106.52 118.15 106.52 125.06"/><polygon class="cls-1" points="120.29 115.72 114.3 112.27 120.29 108.81 120.29 115.72"/><polygon class="cls-1" points="119.43 102.92 113.25 106.49 113.25 99.36 119.43 102.92"/><polygon class="cls-1" points="106.46 87.59 100.67 84.24 106.46 80.9 106.46 87.59"/><polygon class="cls-1" points="102.94 74.9 97.23 78.2 97.23 71.61 102.94 74.9"/><polygon class="cls-1" points="90.17 59.38 84.7 56.22 90.17 53.07 90.17 59.38"/><polygon class="cls-1" points="71.42 56.22 64.46 60.24 64.46 52.2 71.42 56.22"/><polygon class="cls-1" points="58.41 60.41 51.16 56.22 58.41 52.03 58.41 60.41"/><polygon class="cls-1" points="38.81 56.22 32.23 60.02 32.23 52.43 38.81 56.22"/><polygon class="cls-1" points="25.6 78.3 19.71 74.9 25.6 71.51 25.6 78.3"/><polygon class="cls-1" points="22.13 84.24 16.3 87.61 16.3 80.88 22.13 84.24"/><polygon class="cls-1" points="9.67 106.76 3.03 102.92 9.67 99.09 9.67 106.76"/><polygon class="cls-1" points="22.13 121.61 16.3 124.97 16.3 118.24 22.13 121.61"/><polygon class="cls-1" points="25.61 134.37 19.69 130.95 25.61 127.52 25.61 134.37"/><polygon class="cls-1" points="119.7 121.61 113.12 125.4 113.12 117.81 119.7 121.61"/><polygon class="cls-1" points="122.79 97.2 116.53 93.58 122.79 89.97 122.79 97.2"/><polygon class="cls-1" points="119.24 84.24 113.35 87.64 113.35 80.85 119.24 84.24"/><polygon class="cls-1" points="106.25 68.55 101.07 65.56 106.25 62.57 106.25 68.55"/><polygon class="cls-1" points="102.32 56.22 97.54 58.98 97.54 53.46 102.32 56.22"/><polygon class="cls-1" points="86.26 46.88 81.31 49.74 81.31 44.02 86.26 46.88"/><polygon class="cls-1" points="74.14 50.3 68.23 46.88 74.14 43.47 74.14 50.3"/><polygon class="cls-1" points="55.09 46.88 48.36 50.77 48.36 43 55.09 46.88"/><polygon class="cls-1" points="41.94 50.57 35.56 46.88 41.94 43.2 41.94 50.57"/><polygon class="cls-1" points="25.61 59.64 19.69 56.22 25.61 52.81 25.61 59.64"/><polygon class="cls-1" points="22.09 65.56 16.32 68.89 16.32 62.23 22.09 65.56"/><polygon class="cls-1" points="9.51 87.8 3.36 84.24 9.51 80.69 9.51 87.8"/><polygon class="cls-1" points="0 89.75 0 97.42 6.63 93.58 0 89.75"/><polygon class="cls-1" points="0 108.47 0 116.06 6.57 112.27 0 108.47"/><polygon class="cls-1" points="9.48 125.1 3.42 121.61 9.48 118.11 9.48 125.1"/><polygon class="cls-1" points="22.06 140.29 16.34 143.59 16.34 136.98 22.06 140.29"/><polygon class="cls-1" points="122.52 78.05 117.07 74.9 122.52 71.75 122.52 78.05"/><polygon class="cls-1" points="118.49 65.56 113.73 68.31 113.73 62.82 118.49 65.56"/><polygon class="cls-1" points="105.69 48.89 102.21 46.88 105.69 44.88 105.69 48.89"/><polygon class="cls-1" points="100.83 37.54 98.29 39.01 98.29 36.08 100.83 37.54"/><polygon class="cls-1" points="89.41 39.38 86.23 37.54 89.41 35.71 89.41 39.38"/><polygon class="cls-1" points="70.06 37.54 65.14 40.39 65.14 34.7 70.06 37.54"/><polygon class="cls-1" points="57.83 40.73 52.31 37.54 57.83 34.35 57.83 40.73"/><polygon class="cls-1" points="38.02 37.54 32.63 40.66 32.63 34.43 38.02 37.54"/><polygon class="cls-1" points="25.24 40.31 20.44 37.54 25.24 34.77 25.24 40.31"/><polygon class="cls-1" points="21.66 46.88 16.54 49.84 16.54 43.93 21.66 46.88"/><polygon class="cls-1" points="9.27 68.69 3.85 65.56 9.27 62.43 9.27 68.69"/><polygon class="cls-1" points="5.99 74.9 .1 78.3 .1 71.5 5.99 74.9"/><polygon class="cls-1" points="5.99 130.95 .1 134.35 .1 127.55 5.99 130.95"/><polygon class="cls-1" points="9.29 143.45 3.8 140.29 9.29 137.12 9.29 143.45"/><polygon class="cls-1" points="58 155.76 51.98 152.29 58 148.82 58 155.76"/><polygon class="cls-1" points="70.61 152.29 64.86 155.61 64.86 148.97 70.61 152.29"/><polygon class="cls-1" points="41.9 165.24 35.64 161.63 41.9 158.02 41.9 165.24"/><polygon class="cls-1" points="54.8 161.63 48.5 165.27 48.5 158 54.8 161.63"/><polygon class="cls-1" points="38.53 152.29 32.37 155.85 32.37 148.73 38.53 152.29"/><polygon class="cls-1" points="25.61 155.71 19.69 152.29 25.61 148.87 25.61 155.71"/><polygon class="cls-1" points="22.06 161.63 16.34 164.94 16.34 158.32 22.06 161.63"/><polygon class="cls-1" points="5.99 152.29 .1 155.69 .1 148.89 5.99 152.29"/><polygon class="cls-1" points="25.61 176.37 19.69 172.94 25.61 169.52 25.61 176.37"/><polygon class="cls-1" points="5.99 172.94 .1 176.34 .1 169.54 5.99 172.94"/><polygon class="cls-1" points="9.29 164.8 3.8 161.63 9.29 158.46 9.29 164.8"/><polygon class="cls-1" points="9.29 187.38 3.8 184.21 9.29 181.04 9.29 187.38"/><polygon class="cls-1" points="121.95 58.38 118.21 56.22 121.95 54.07 121.95 58.38"/><polygon class="cls-1" points="117.29 46.88 114.32 48.6 114.32 45.17 117.29 46.88"/><polygon class="cls-1" points="104.91 28.87 103.76 28.2 104.91 27.54 104.91 28.87"/><polygon class="cls-1" points="84.35 28.2 82.26 29.41 82.26 27 84.35 28.2"/><polygon class="cls-1" points="73.1 29.82 70.3 28.2 73.1 26.59 73.1 29.82"/><polygon class="cls-1" points="53.21 28.2 49.29 30.46 49.29 25.94 53.21 28.2"/><polygon class="cls-1" points="41.13 30.48 37.19 28.2 41.13 25.93 41.13 30.48"/><polygon class="cls-1" points="20.34 28.2 17.2 30.01 17.2 26.39 20.34 28.2"/><polygon class="cls-1" points="8.92 49.41 4.55 46.88 8.92 44.36 8.92 49.41"/><polygon class="cls-1" points="5.24 56.22 .48 58.97 .48 53.48 5.24 56.22"/><polygon class="cls-1" points="121.25 38.48 119.62 37.54 121.25 36.61 121.25 38.48"/><polygon class="cls-1" points="115.91 28.2 115.02 28.72 115.02 27.69 115.91 28.2"/><polygon class="cls-1" points="99.48 18.86 98.96 19.16 98.96 18.57 99.48 18.86"/><polygon class="cls-1" points="88.6 19.29 87.85 18.86 88.6 18.43 88.6 19.29"/><polygon class="cls-1" points="67.84 18.86 66.25 19.78 66.25 17.94 67.84 18.86"/><polygon class="cls-1" points="56.67 20.03 54.64 18.86 56.67 17.69 56.67 20.03"/><polygon class="cls-1" points="35.93 18.86 33.67 20.17 33.67 17.56 35.93 18.86"/><polygon class="cls-1" points="24.32 20.04 22.27 18.86 24.32 17.68 24.32 20.04"/><polygon class="cls-1" points="8.26 29.59 5.86 28.2 8.26 26.81 8.26 29.59"/><polygon class="cls-1" points="4.11 37.54 1.05 39.31 1.05 35.77 4.11 37.54"/><polygon class="cls-1" points="120.79 19.02 120.53 18.86 120.79 18.71 120.79 19.02"/><polygon class="cls-1" points="83.13 9.52 82.87 9.67 82.87 9.37 83.13 9.52"/><polygon class="cls-1" points="72.33 9.79 71.86 9.52 72.33 9.25 72.33 9.79"/><polygon class="cls-1" points="51.2 9.52 50.3 10.04 50.3 9 51.2 9.52"/><polygon class="cls-1" points="40.15 10.09 39.16 9.52 40.15 8.95 40.15 10.09"/><polygon class="cls-1" points="18.78 9.52 17.98 9.99 17.98 9.06 18.78 9.52"/><polygon class="cls-1" points="7.65 9.85 7.08 9.52 7.65 9.2 7.65 9.85"/><polygon class="cls-1" points="2.81 18.86 1.69 19.51 1.69 18.21 2.81 18.86"/><polygon class="cls-1" points="34.63 .18 34.32 .36 34.32 0 34.63 .18"/><polygon class="cls-1" points="23.73 .35 23.44 .18 23.73 .01 23.73 .35"/><polygon class="cls-1" points="115.54 215.01 115.2 215.21 115.2 214.81 115.54 215.01"/><polygon class="cls-1" points="120.79 224.49 120.54 224.35 120.79 224.21 120.79 224.49"/></g></g></svg>