<?xml version="1.0" encoding="UTF-8"?><svg xmlns="http://www.w3.org/2000/svg" xmlns:xlink="http://www.w3.org/1999/xlink" viewBox="0 0 141.07 141.07"><defs><style>.cls-1{stroke:url(#linear-gradient);}.cls-1,.cls-2,.cls-3,.cls-4,.cls-5,.cls-6,.cls-7{fill:none;stroke-linecap:round;stroke-miterlimit:10;}.cls-2{stroke:url(#linear-gradient-5);}.cls-3{stroke:url(#linear-gradient-7);}.cls-4{stroke:url(#linear-gradient-6);}.cls-5{stroke:url(#linear-gradient-2);}.cls-6{stroke:url(#linear-gradient-4);}.cls-7{stroke:url(#linear-gradient-3);}.cls-8{mix-blend-mode:screen;}.cls-9{isolation:isolate;}</style><linearGradient id="linear-gradient" x1="0" y1="70.53" x2="141.07" y2="70.53" gradientUnits="userSpaceOnUse"><stop offset="0" stop-color="#6bc3c6"/><stop offset="1" stop-color="#2e509f"/></linearGradient><linearGradient id="linear-gradient-2" x1="6.65" y1="69.32" x2="131.99" y2="69.32" xlink:href="#linear-gradient"/><linearGradient id="linear-gradient-3" x1="13.3" y1="68.1" x2="122.9" y2="68.1" xlink:href="#linear-gradient"/><linearGradient id="linear-gradient-4" x1="19.95" y1="66.88" x2="113.82" y2="66.88" xlink:href="#linear-gradient"/><linearGradient id="linear-gradient-5" x1="26.6" y1="65.67" x2="104.74" y2="65.67" xlink:href="#linear-gradient"/><linearGradient id="linear-gradient-6" x1="33.25" y1="64.45" x2="95.65" y2="64.45" xlink:href="#linear-gradient"/><linearGradient id="linear-gradient-7" x1="39.9" y1="63.23" x2="86.57" y2="63.23" xlink:href="#linear-gradient"/></defs><g class="cls-9"><g id="Layer_2"><g id="Layer_1-2"><g class="cls-8"><polygon class="cls-1" points=".71 .71 38.06 140.1 140.1 38.06 .71 .71"/><polygon class="cls-5" points="7.36 7.36 40.49 131.02 131.02 40.49 7.36 7.36"/><polygon class="cls-7" points="14.01 14.01 42.93 121.94 121.94 42.93 14.01 14.01"/><polygon class="cls-6" points="20.65 20.65 45.36 112.85 112.85 45.36 20.65 20.65"/><polygon class="cls-2" points="27.3 27.3 47.79 103.77 103.77 47.79 27.3 27.3"/><polygon class="cls-4" points="33.95 33.95 50.23 94.69 94.69 50.23 33.95 33.95"/><polygon class="cls-3" points="40.6 40.6 52.66 85.61 85.61 52.66 40.6 40.6"/></g></g></g></g></svg>