<?xml version="1.0" ?>
<!DOCTYPE svg  PUBLIC '-//W3C//DTD SVG 1.1//EN'  'http://www.w3.org/Graphics/SVG/1.1/DTD/svg11.dtd'>
<!-- Uploaded to: SVG Repo, www.svgrepo.com, Generator: SVG Repo Mixer Tools -->
<svg fill="#000000" width="800px" height="800px" viewBox="0 0 512 512" enable-background="new 0 0 512 512" id="Self_x5F_improvement" version="1.1" xml:space="preserve" xmlns="http://www.w3.org/2000/svg" xmlns:xlink="http://www.w3.org/1999/xlink">
<g>
<path d="M380.417,258.812c-1.904-41.328-25.76-76.918-60.197-95.363c-2.717-1.48-5.514-2.838-8.369-4.074   c-13.947-6.061-29.33-9.426-45.504-9.426c-60.75,0-110.34,47.453-113.891,107.328l0.044-0.004v0.201   c0,2.209-0.122,12.92-0.122,12.92l-20.393,56.073c-2.006,5.557,2.082,11.033,7.99,11.033h12.291l-0.092,64.488   c0,12.537,10.162,23.512,22.699,23.512H217.5v57.376c0,9.301,7.309,16.624,16.61,16.624h104.432   c9.301,0,15.958-7.323,15.958-16.624V364.118c0-16.357,4.8-32.328,12.44-46.793c7.984-15.111,12.905-32.229,13.339-50.406   c0.02-0.912,0.148-1.844,0.148-2.775C380.428,262.358,380.499,260.575,380.417,258.812z M305.614,272.5H223.03   c-20.684,0-37.451-16.52-37.451-37.206s16.768-37.329,37.451-37.329c3.531,0,6.932,0.587,10.168,1.5   c5.379-14.092,18.984-24.088,34.965-24.088c15.496,0,28.793,9.429,34.488,22.847c0.98-0.076,1.963-0.142,2.963-0.142   c20.686,0,37.455,16.524,37.455,37.209S326.3,272.5,305.614,272.5z"/>
<path d="M326.093,114.5h8.407v7.737c0,3.416,2.084,6.188,5.5,6.188s5.5-2.771,5.5-6.188V114.5h9.243c3.416,0,6.188-3.084,6.188-6.5   s-2.771-6.5-6.188-6.5H345.5v-7.915c0-3.418-2.084-6.188-5.5-6.188s-5.5,2.77-5.5,6.188v7.915h-8.407   c-3.418,0-6.188,3.084-6.188,6.5S322.675,114.5,326.093,114.5z"/>
<path d="M188.245,40.5h6.255v8.142c0,3.416,3.584,6.188,7,6.188s7-2.771,7-6.188V40.5h8.397c3.416,0,6.188-3.084,6.188-6.5   s-2.771-6.5-6.188-6.5H208.5v-7.511c0-3.416-3.584-6.188-7-6.188s-7,2.771-7,6.188V27.5h-6.255c-3.418,0-6.188,3.084-6.188,6.5   S184.827,40.5,188.245,40.5z"/>
<rect height="27" width="27" x="203.5" y="220.5"/>
<polygon points="248.75,245.5 282.513,245.5 265.63,219.754  "/>
<circle cx="313.101" cy="233.486" r="14.181"/>
<path d="M259.745,126.11c1.02,0.975,2.328,1.459,3.635,1.459c1.311,0,2.619-0.488,3.637-1.461l19.479-18.609   c1.564-1.492,2.057-3.218,1.25-5.23c-0.803-2.008-2.723-2.769-4.887-2.769h-13.313l-0.07-40.361   c-0.006-3.414-2.775-7.639-6.188-7.639c-0.004,0-0.006,0-0.012,0c-3.416,3-6.182,4.242-6.176,7.66l0.07,40.34h-13.27   c-2.164,0-4.084,0.761-4.889,2.771s-0.314,4.003,1.25,5.5L259.745,126.11z"/>
<path d="M262.5,40.503c3.416,0,7-2.77,7-6.188V19.64c0-3.416-3.584-6.188-7-6.188s-7,2.771-7,6.188v14.676   C255.5,37.733,259.084,40.503,262.5,40.503z"/>
</g>
</svg>