<?xml version="1.0" encoding="UTF-8"?><svg id="Layer_2" xmlns="http://www.w3.org/2000/svg" viewBox="0 0 45.03 42.79"><defs><style>.cls-1{fill:#459ed1;}</style></defs><g id="Layer_1-2"><g><path class="cls-1" d="M40.79,10.33c.92-.8,1.5-1.97,1.5-3.28,0-2.4-1.96-4.36-4.36-4.36s-4.36,1.96-4.36,4.36,1.96,4.36,4.36,4.36c1.35,0,5.75,.21,5.75,2.91,0,1.14-.65,2.44-5.75,2.44s-5.75-1.31-5.75-2.44,.83-2.03,2.47-2.51c.36-.1,.56-.48,.46-.83s-.47-.56-.83-.46c-2.22,.65-3.44,2-3.44,3.8,0,3.79,5.15,3.79,7.09,3.79s7.09,0,7.09-3.79c0-2.03-1.54-3.43-4.23-3.98h0Zm-5.88-3.28c0-1.66,1.35-3.02,3.02-3.02s3.02,1.35,3.02,3.02-1.35,3.02-3.02,3.02-3.02-1.35-3.02-3.02h0Z"/><path class="cls-1" d="M25.23,35.02c.92-.8,1.5-1.97,1.5-3.28,0-2.4-1.96-4.36-4.36-4.36s-4.36,1.96-4.36,4.36,1.96,4.36,4.36,4.36c1.35,0,5.75,.21,5.75,2.91,0,1.14-.65,2.45-5.75,2.45s-5.75-1.31-5.75-2.45,.83-2.02,2.48-2.51c.36-.1,.56-.48,.46-.83-.1-.36-.47-.56-.83-.45-2.22,.65-3.44,2-3.44,3.79,0,3.79,5.15,3.79,7.09,3.79s7.09,0,7.09-3.79c0-2.03-1.54-3.43-4.23-3.98h0Zm-5.88-3.28c0-1.66,1.35-3.02,3.02-3.02s3.02,1.35,3.02,3.02-1.35,3.02-3.02,3.02-3.02-1.35-3.02-3.02Z"/><path class="cls-1" d="M9.95,10.33c.92-.8,1.5-1.97,1.5-3.29,0-2.4-1.96-4.36-4.36-4.36S2.73,4.64,2.73,7.05s1.96,4.36,4.36,4.36c1.35,0,5.75,.21,5.75,2.91,0,1.14-.65,2.44-5.75,2.44-5.09,0-5.75-1.31-5.75-2.44s.83-2.03,2.47-2.51c.36-.1,.56-.48,.46-.83-.1-.36-.48-.56-.83-.46-2.22,.65-3.44,2-3.44,3.8,0,3.79,5.15,3.79,7.09,3.79s7.09,0,7.09-3.79c0-2.02-1.54-3.43-4.23-3.98h0Zm-5.88-3.28c0-1.66,1.35-3.02,3.02-3.02s3.02,1.35,3.02,3.02-1.35,3.02-3.02,3.02-3.02-1.35-3.02-3.02Z"/><path class="cls-1" d="M12.51,37.18c-.11,0-.23-.03-.34-.09-6.14-3.56-9.96-10.16-9.96-17.23,0-.37,.3-.67,.67-.67s.67,.3,.67,.67c0,6.59,3.56,12.75,9.29,16.07,.32,.19,.43,.6,.24,.92-.12,.22-.35,.34-.58,.34h0Z"/><path class="cls-1" d="M31.74,37.18c-.23,0-.46-.12-.58-.34-.19-.32-.08-.73,.24-.92,5.73-3.32,9.29-9.47,9.29-16.07,0-.37,.3-.67,.67-.67s.67,.3,.67,.67c0,7.07-3.82,13.67-9.96,17.23-.11,.06-.22,.09-.34,.09h0Z"/><path class="cls-1" d="M31.98,4.03c-.12,0-.24-.03-.34-.09C26.01,.57,18.75,.48,13.08,3.65c-.32,.18-.73,.06-.91-.26-.18-.32-.07-.73,.26-.91,6.08-3.4,13.87-3.3,19.9,.3,.32,.19,.42,.6,.23,.92-.13,.21-.35,.33-.58,.33h0Z"/></g></g></svg>