<svg width="209" height="383" viewBox="0 0 209 383" fill="none" xmlns="http://www.w3.org/2000/svg">
<g filter="url(#filter0_d_305_168)">
<line y1="-0.5" x2="296.447" y2="-0.5" transform="matrix(0.674657 0.738131 -0.674657 0.738131 4 1)" stroke="#565050"/>
<line y1="-0.5" x2="296.447" y2="-0.5" transform="matrix(0.674657 0.738131 -0.674657 0.738131 4 32)" stroke="#565050"/>
<line y1="-0.5" x2="296.447" y2="-0.5" transform="matrix(0.674657 0.738131 -0.674657 0.738131 4 125)" stroke="#565050"/>
<line y1="-0.5" x2="296.447" y2="-0.5" transform="matrix(0.674657 0.738131 -0.674657 0.738131 4 156)" stroke="#565050"/>
<line y1="-0.5" x2="296.447" y2="-0.5" transform="matrix(0.674657 0.738131 -0.674657 0.738131 4 63)" stroke="#565050"/>
<line y1="-0.5" x2="296.447" y2="-0.5" transform="matrix(0.674657 0.738131 -0.674657 0.738131 4 94)" stroke="#565050"/>
</g>
<defs>
<filter id="filter0_d_305_168" x="0" y="0.261841" width="208.675" height="382.555" filterUnits="userSpaceOnUse" color-interpolation-filters="sRGB">
<feFlood flood-opacity="0" result="BackgroundImageFix"/>
<feColorMatrix in="SourceAlpha" type="matrix" values="0 0 0 0 0 0 0 0 0 0 0 0 0 0 0 0 0 0 127 0" result="hardAlpha"/>
<feOffset dy="4"/>
<feGaussianBlur stdDeviation="2"/>
<feComposite in2="hardAlpha" operator="out"/>
<feColorMatrix type="matrix" values="0 0 0 0 0 0 0 0 0 0 0 0 0 0 0 0 0 0 0.25 0"/>
<feBlend mode="normal" in2="BackgroundImageFix" result="effect1_dropShadow_305_168"/>
<feBlend mode="normal" in="SourceGraphic" in2="effect1_dropShadow_305_168" result="shape"/>
</filter>
</defs>
</svg>
