<?xml version="1.0" encoding="UTF-8"?>
<svg xmlns="http://www.w3.org/2000/svg" xmlns:xlink="http://www.w3.org/1999/xlink" width="169px" height="40px" viewBox="0 0 167 40" version="1.1">
<g id="surface1">
<path style=" stroke:none;fill-rule:nonzero;fill:rgb(26.666667%,61.568627%,82.352941%);fill-opacity:1;" d="M 26.421875 8.867188 C 25.425781 7.867188 24.929688 6.644531 24.929688 5.195312 C 24.929688 3.746094 25.425781 2.523438 26.421875 1.527344 C 27.414062 0.53125 28.632812 0.03125 30.078125 0.03125 C 31.519531 0.03125 32.738281 0.53125 33.730469 1.527344 C 34.726562 2.527344 35.222656 3.75 35.222656 5.199219 C 35.222656 6.648438 34.726562 7.871094 33.730469 8.871094 C 32.738281 9.867188 31.519531 10.367188 30.078125 10.367188 C 28.632812 10.367188 27.414062 9.867188 26.421875 8.871094 Z M 26.421875 8.867188 "/>
<path style=" stroke:none;fill-rule:nonzero;fill:rgb(5.882353%,4.705882%,32.156863%);fill-opacity:1;" d="M 23.082031 10.316406 L 23.082031 31.640625 L 16.976562 31.640625 L 16.976562 20.84375 C 16.976562 20.84375 6.101562 20.84375 6.101562 20.84375 L 6.101562 31.640625 L 0 31.640625 L 0 4.1875 L 6.105469 4.1875 L 6.105469 15.65625 C 6.105469 15.65625 16.980469 15.65625 16.980469 15.65625 L 16.980469 4.1875 C 16.980469 4.1875 23.085938 10.320312 23.085938 10.320312 Z M 23.082031 10.316406 "/>
<path style=" stroke:none;fill-rule:nonzero;fill:rgb(5.882353%,4.705882%,32.156863%);fill-opacity:1;" d="M 33.007812 19.425781 L 33.007812 31.640625 L 27.144531 31.640625 L 27.144531 13.535156 Z M 33.007812 19.425781 "/>
<path style=" stroke:none;fill-rule:nonzero;fill:rgb(5.882353%,4.705882%,32.156863%);fill-opacity:1;" d="M 56.382812 28.578125 C 54.011719 30.828125 51.222656 31.957031 48.03125 31.957031 C 44.835938 31.957031 42.195312 30.96875 40.109375 28.988281 C 38.019531 27.011719 36.980469 24.363281 36.980469 21.035156 C 36.980469 17.707031 38.039062 15.0625 40.164062 13.101562 C 42.289062 11.136719 44.800781 10.15625 47.695312 10.15625 C 50.589844 10.15625 53.050781 11.035156 55.070312 12.789062 C 57.089844 14.546875 58.101562 16.953125 58.101562 20.015625 L 58.101562 23.160156 L 42.765625 23.160156 C 42.945312 24.3125 43.546875 25.257812 44.566406 25.988281 C 45.582031 26.722656 46.730469 27.089844 48.007812 27.089844 C 50.070312 27.089844 51.765625 26.394531 53.09375 25.007812 L 56.378906 28.582031 Z M 50.75 16.046875 C 49.941406 15.367188 48.957031 15.027344 47.796875 15.027344 C 46.636719 15.027344 45.574219 15.382812 44.609375 16.089844 C 43.644531 16.792969 43.085938 17.75 42.929688 18.957031 L 52.164062 18.957031 C 52.03125 17.699219 51.5625 16.730469 50.753906 16.046875 Z M 50.75 16.046875 "/>
<path style=" stroke:none;fill-rule:nonzero;fill:rgb(5.882353%,4.705882%,32.156863%);fill-opacity:1;" d="M 69.46875 31.957031 C 66.976562 31.957031 64.753906 30.894531 62.796875 28.773438 C 60.839844 26.652344 59.863281 24.023438 59.863281 20.878906 C 59.863281 17.738281 60.816406 15.164062 62.722656 13.160156 C 64.625 11.160156 66.855469 10.15625 69.410156 10.15625 C 71.96875 10.15625 74.054688 11.058594 75.667969 12.867188 L 75.667969 2.5 L 81.539062 2.5 L 81.539062 31.640625 L 75.667969 31.640625 L 75.667969 28.851562 C 74.023438 30.921875 71.960938 31.957031 69.46875 31.957031 Z M 65.773438 21.113281 C 65.773438 22.816406 66.28125 24.210938 67.296875 25.296875 C 68.316406 26.386719 69.5 26.929688 70.859375 26.929688 C 72.214844 26.929688 73.367188 26.386719 74.320312 25.296875 C 75.269531 24.210938 75.746094 22.8125 75.746094 21.09375 C 75.746094 19.378906 75.269531 17.953125 74.320312 16.816406 C 73.367188 15.675781 72.199219 15.105469 70.816406 15.105469 C 69.4375 15.105469 68.25 15.683594 67.257812 16.835938 C 66.265625 17.984375 65.773438 19.414062 65.773438 21.113281 Z M 65.773438 21.113281 "/>
<path style=" stroke:none;fill-rule:nonzero;fill:rgb(5.882353%,4.705882%,32.156863%);fill-opacity:1;" d="M 97.175781 10.160156 C 99.734375 10.160156 101.960938 11.160156 103.867188 13.164062 C 105.769531 15.167969 106.722656 17.738281 106.722656 20.882812 C 106.722656 24.023438 105.746094 26.65625 103.789062 28.777344 C 101.832031 30.898438 99.609375 31.957031 97.117188 31.957031 C 94.625 31.957031 92.558594 30.921875 90.914062 28.855469 L 90.914062 31.644531 L 85.046875 31.644531 L 85.046875 2.5 L 90.914062 2.5 L 90.914062 12.867188 C 92.53125 11.0625 94.621094 10.160156 97.171875 10.160156 Z M 90.839844 21.097656 C 90.839844 22.8125 91.3125 24.214844 92.265625 25.300781 C 93.21875 26.386719 94.371094 26.933594 95.726562 26.933594 C 97.082031 26.933594 98.269531 26.386719 99.285156 25.300781 C 100.304688 24.214844 100.8125 22.820312 100.8125 21.117188 C 100.8125 19.414062 100.316406 17.988281 99.328125 16.835938 C 98.335938 15.6875 97.148438 15.109375 95.765625 15.109375 C 94.386719 15.109375 93.21875 15.679688 92.265625 16.816406 C 91.3125 17.953125 90.839844 19.382812 90.839844 21.097656 Z M 90.839844 21.097656 "/>
<path style=" stroke:none;fill-rule:nonzero;fill:rgb(5.882353%,4.705882%,32.156863%);fill-opacity:1;" d="M 127.882812 28.578125 C 125.507812 30.828125 122.726562 31.957031 119.53125 31.957031 C 116.335938 31.957031 113.695312 30.96875 111.609375 28.988281 C 109.519531 27.011719 108.476562 24.363281 108.476562 21.035156 C 108.476562 17.710938 109.539062 15.0625 111.667969 13.101562 C 113.792969 11.136719 116.304688 10.15625 119.199219 10.15625 C 122.09375 10.15625 124.550781 11.035156 126.570312 12.789062 C 128.589844 14.546875 129.601562 16.953125 129.601562 20.015625 L 129.601562 23.160156 L 114.265625 23.160156 C 114.449219 24.3125 115.050781 25.257812 116.066406 25.988281 C 117.082031 26.722656 118.230469 27.089844 119.511719 27.089844 C 121.570312 27.089844 123.265625 26.394531 124.597656 25.007812 L 127.882812 28.582031 Z M 122.25 16.046875 C 121.441406 15.367188 120.453125 15.027344 119.296875 15.027344 C 118.136719 15.027344 117.074219 15.382812 116.105469 16.089844 C 115.140625 16.792969 114.582031 17.75 114.425781 18.957031 L 123.660156 18.957031 C 123.527344 17.699219 123.058594 16.730469 122.25 16.046875 Z M 122.25 16.046875 "/>
<path style=" stroke:none;fill-rule:nonzero;fill:rgb(5.882353%,4.705882%,32.156863%);fill-opacity:1;" d="M 142.433594 15.695312 C 140.6875 15.695312 139.382812 16.316406 138.519531 17.5625 C 137.660156 18.808594 137.230469 20.449219 137.230469 22.492188 L 137.230469 31.644531 L 131.359375 31.644531 L 131.359375 10.511719 L 137.230469 10.511719 L 137.230469 13.300781 C 137.984375 12.433594 138.929688 11.703125 140.066406 11.101562 C 141.199219 10.5 142.355469 10.1875 143.527344 10.160156 L 143.566406 15.695312 L 142.429688 15.695312 Z M 142.433594 15.695312 "/>
<path style=" stroke:none;fill-rule:nonzero;fill:rgb(5.882353%,4.705882%,32.156863%);fill-opacity:1;" d="M 162.03125 28.066406 C 160.175781 30.136719 157.875 31.171875 155.125 31.171875 C 152.371094 31.171875 150.054688 30.234375 148.160156 28.363281 C 146.269531 26.488281 145.324219 23.988281 145.324219 20.859375 C 145.324219 17.730469 146.296875 15.164062 148.238281 13.160156 C 150.179688 11.160156 152.40625 10.15625 154.910156 10.15625 C 157.414062 10.15625 159.488281 11.191406 161.132812 13.261719 L 161.132812 10.472656 L 167 10.472656 L 167 28.890625 C 167 30.777344 166.671875 32.453125 166.023438 33.917969 C 165.371094 35.386719 164.496094 36.535156 163.402344 37.375 C 161.234375 39.105469 158.679688 39.96875 155.730469 39.96875 C 154.167969 39.96875 152.570312 39.714844 150.941406 39.203125 C 149.308594 38.691406 147.882812 37.964844 146.65625 37.023438 L 148.925781 32.582031 C 150.855469 34.050781 152.894531 34.78125 155.046875 34.78125 C 157.203125 34.78125 158.902344 34.246094 160.152344 33.171875 C 161.40625 32.09375 162.03125 30.394531 162.03125 28.0625 Z M 161.207031 20.625 C 161.207031 18.9375 160.738281 17.605469 159.800781 16.640625 C 158.863281 15.671875 157.703125 15.1875 156.320312 15.1875 C 154.9375 15.1875 153.742188 15.671875 152.742188 16.640625 C 151.738281 17.609375 151.234375 18.929688 151.234375 20.605469 C 151.234375 22.277344 151.722656 23.632812 152.699219 24.667969 C 153.679688 25.703125 154.875 26.21875 156.28125 26.21875 C 157.6875 26.21875 158.863281 25.710938 159.800781 24.6875 C 160.738281 23.667969 161.207031 22.3125 161.207031 20.625 Z M 161.207031 20.625 "/>
</g>
</svg>
