<?xml version="1.0" encoding="UTF-8"?>
<svg xmlns="http://www.w3.org/2000/svg" xmlns:xlink="http://www.w3.org/1999/xlink" width="169px" height="40px" viewBox="0 0 168 40" version="1.1">
<g id="surface1">
<path style=" stroke:none;fill-rule:nonzero;fill:rgb(15.294118%,84.705882%,84.705882%);fill-opacity:1;" d="M 27.113281 8.867188 C 26.121094 7.867188 25.625 6.644531 25.625 5.195312 C 25.625 3.75 26.121094 2.523438 27.113281 1.527344 C 28.101562 0.53125 29.316406 0.03125 30.753906 0.03125 C 32.195312 0.03125 33.40625 0.53125 34.398438 1.527344 C 35.390625 2.527344 35.886719 3.75 35.886719 5.199219 C 35.886719 6.648438 35.390625 7.871094 34.398438 8.871094 C 33.40625 9.867188 32.195312 10.367188 30.753906 10.367188 C 29.316406 10.367188 28.101562 9.867188 27.113281 8.871094 Z M 27.113281 8.867188 "/>
<path style=" stroke:none;fill-rule:nonzero;fill:rgb(100%,100%,100%);fill-opacity:1;" d="M 23.785156 10.316406 L 23.785156 31.640625 L 17.699219 31.640625 L 17.699219 20.84375 C 17.699219 20.84375 6.863281 20.84375 6.863281 20.84375 L 6.863281 31.640625 L 0.78125 31.640625 L 0.78125 4.1875 L 6.867188 4.1875 L 6.867188 15.660156 C 6.867188 15.660156 17.703125 15.660156 17.703125 15.660156 L 17.703125 4.1875 C 17.703125 4.1875 23.789062 10.320312 23.789062 10.320312 Z M 23.785156 10.316406 "/>
<path style=" stroke:none;fill-rule:nonzero;fill:rgb(100%,100%,100%);fill-opacity:1;" d="M 33.679688 19.425781 L 33.679688 31.640625 L 27.835938 31.640625 L 27.835938 13.535156 Z M 33.679688 19.425781 "/>
<path style=" stroke:none;fill-rule:nonzero;fill:rgb(100%,100%,100%);fill-opacity:1;" d="M 56.976562 28.578125 C 54.609375 30.832031 51.832031 31.953125 48.652344 31.953125 C 45.46875 31.953125 42.835938 30.96875 40.753906 28.988281 C 38.671875 27.011719 37.636719 24.363281 37.636719 21.035156 C 37.636719 17.710938 38.695312 15.0625 40.8125 13.101562 C 42.929688 11.140625 45.433594 10.15625 48.316406 10.15625 C 51.199219 10.15625 53.652344 11.03125 55.664062 12.789062 C 57.679688 14.546875 58.6875 16.953125 58.6875 20.019531 L 58.6875 23.160156 L 43.402344 23.160156 C 43.582031 24.3125 44.183594 25.257812 45.195312 25.988281 C 46.210938 26.722656 47.355469 27.089844 48.628906 27.089844 C 50.679688 27.089844 52.371094 26.398438 53.695312 25.007812 L 56.972656 28.582031 Z M 51.359375 16.046875 C 50.554688 15.367188 49.574219 15.027344 48.414062 15.027344 C 47.261719 15.027344 46.199219 15.382812 45.242188 16.085938 C 44.277344 16.796875 43.722656 17.75 43.566406 18.957031 L 52.769531 18.957031 C 52.636719 17.699219 52.171875 16.726562 51.363281 16.046875 Z M 51.359375 16.046875 "/>
<path style=" stroke:none;fill-rule:nonzero;fill:rgb(100%,100%,100%);fill-opacity:1;" d="M 70.015625 31.953125 C 67.53125 31.953125 65.316406 30.894531 63.367188 28.773438 C 61.417969 26.652344 60.445312 24.023438 60.445312 20.878906 C 60.445312 17.734375 61.390625 15.164062 63.289062 13.160156 C 65.1875 11.15625 67.410156 10.15625 69.960938 10.15625 C 72.507812 10.15625 74.585938 11.058594 76.195312 12.863281 L 76.195312 2.5 L 82.042969 2.5 L 82.042969 31.640625 L 76.195312 31.640625 L 76.195312 28.855469 C 74.554688 30.921875 72.5 31.953125 70.015625 31.953125 Z M 66.332031 21.113281 C 66.332031 22.816406 66.839844 24.210938 67.851562 25.296875 C 68.867188 26.386719 70.046875 26.929688 71.398438 26.929688 C 72.753906 26.929688 73.898438 26.386719 74.847656 25.296875 C 75.796875 24.210938 76.273438 22.8125 76.273438 21.09375 C 76.273438 19.382812 75.796875 17.953125 74.847656 16.8125 C 73.898438 15.675781 72.738281 15.105469 71.359375 15.105469 C 69.984375 15.105469 68.800781 15.683594 67.8125 16.835938 C 66.824219 17.988281 66.332031 19.410156 66.332031 21.113281 Z M 66.332031 21.113281 "/>
<path style=" stroke:none;fill-rule:nonzero;fill:rgb(100%,100%,100%);fill-opacity:1;" d="M 97.632812 10.160156 C 100.175781 10.160156 102.398438 11.160156 104.296875 13.164062 C 106.195312 15.164062 107.144531 17.738281 107.144531 20.882812 C 107.144531 24.027344 106.171875 26.65625 104.21875 28.777344 C 102.269531 30.898438 100.054688 31.957031 97.570312 31.957031 C 95.085938 31.957031 93.027344 30.921875 91.390625 28.855469 L 91.390625 31.644531 L 85.542969 31.644531 L 85.542969 2.5 L 91.390625 2.5 L 91.390625 12.867188 C 93 11.0625 95.082031 10.160156 97.628906 10.160156 Z M 91.3125 21.097656 C 91.3125 22.8125 91.785156 24.214844 92.734375 25.300781 C 93.683594 26.386719 94.832031 26.933594 96.183594 26.933594 C 97.535156 26.933594 98.722656 26.386719 99.734375 25.300781 C 100.75 24.214844 101.253906 22.820312 101.253906 21.117188 C 101.253906 19.414062 100.761719 17.988281 99.773438 16.839844 C 98.785156 15.6875 97.601562 15.109375 96.222656 15.109375 C 94.847656 15.109375 93.683594 15.679688 92.734375 16.816406 C 91.785156 17.953125 91.3125 19.382812 91.3125 21.097656 Z M 91.3125 21.097656 "/>
<path style=" stroke:none;fill-rule:nonzero;fill:rgb(100%,100%,100%);fill-opacity:1;" d="M 128.234375 28.578125 C 125.867188 30.832031 123.09375 31.953125 119.910156 31.953125 C 116.722656 31.953125 114.09375 30.96875 112.015625 28.988281 C 109.933594 27.011719 108.894531 24.363281 108.894531 21.035156 C 108.894531 17.707031 109.953125 15.0625 112.070312 13.101562 C 114.191406 11.140625 116.695312 10.15625 119.578125 10.15625 C 122.460938 10.15625 124.914062 11.03125 126.929688 12.789062 C 128.9375 14.546875 129.945312 16.953125 129.945312 20.019531 L 129.945312 23.160156 L 114.664062 23.160156 C 114.84375 24.3125 115.441406 25.257812 116.457031 25.988281 C 117.472656 26.722656 118.613281 27.089844 119.890625 27.089844 C 121.945312 27.089844 123.632812 26.398438 124.960938 25.007812 L 128.234375 28.582031 Z M 122.617188 16.046875 C 121.8125 15.367188 120.828125 15.027344 119.675781 15.027344 C 118.523438 15.027344 117.460938 15.382812 116.496094 16.085938 C 115.535156 16.796875 114.976562 17.75 114.824219 18.957031 L 124.023438 18.957031 C 123.894531 17.699219 123.425781 16.726562 122.621094 16.046875 Z M 122.617188 16.046875 "/>
<path style=" stroke:none;fill-rule:nonzero;fill:rgb(100%,100%,100%);fill-opacity:1;" d="M 142.734375 15.695312 C 140.992188 15.695312 139.691406 16.316406 138.835938 17.5625 C 137.976562 18.808594 137.546875 20.449219 137.546875 22.492188 L 137.546875 31.644531 L 131.699219 31.644531 L 131.699219 10.511719 L 137.546875 10.511719 L 137.546875 13.300781 C 138.304688 12.4375 139.242188 11.703125 140.375 11.101562 C 141.503906 10.5 142.65625 10.1875 143.824219 10.160156 L 143.867188 15.695312 Z M 142.734375 15.695312 "/>
<path style=" stroke:none;fill-rule:nonzero;fill:rgb(100%,100%,100%);fill-opacity:1;" d="M 162.265625 28.066406 C 160.417969 30.136719 158.125 31.171875 155.382812 31.171875 C 152.640625 31.171875 150.332031 30.234375 148.445312 28.359375 C 146.558594 26.488281 145.613281 23.988281 145.613281 20.859375 C 145.613281 17.730469 146.585938 15.164062 148.519531 13.160156 C 150.457031 11.15625 152.675781 10.15625 155.167969 10.15625 C 157.664062 10.15625 159.730469 11.191406 161.371094 13.261719 L 161.371094 10.472656 L 167.21875 10.472656 L 167.21875 28.894531 C 167.21875 30.777344 166.890625 32.449219 166.246094 33.917969 C 165.59375 35.386719 164.726562 36.539062 163.632812 37.378906 C 161.472656 39.105469 158.925781 39.96875 155.988281 39.96875 C 154.429688 39.96875 152.839844 39.714844 151.210938 39.203125 C 149.589844 38.691406 148.164062 37.964844 146.945312 37.023438 L 149.207031 32.582031 C 151.128906 34.050781 153.164062 34.78125 155.308594 34.78125 C 157.453125 34.78125 159.148438 34.246094 160.398438 33.171875 C 161.640625 32.09375 162.269531 30.394531 162.269531 28.0625 Z M 161.445312 20.625 C 161.445312 18.9375 160.980469 17.605469 160.042969 16.640625 C 159.109375 15.671875 157.953125 15.1875 156.574219 15.1875 C 155.199219 15.1875 154.003906 15.671875 153.007812 16.640625 C 152.003906 17.609375 151.503906 18.929688 151.503906 20.605469 C 151.503906 22.28125 151.992188 23.632812 152.96875 24.667969 C 153.941406 25.703125 155.132812 26.21875 156.535156 26.21875 C 157.9375 26.21875 159.109375 25.710938 160.042969 24.6875 C 160.980469 23.667969 161.445312 22.3125 161.445312 20.625 Z M 161.445312 20.625 "/>
</g>
</svg>
