<?xml version="1.0" encoding="UTF-8"?><svg id="Layer_2" xmlns="http://www.w3.org/2000/svg" viewBox="0 0 45.78 31"><defs><style>.cls-1{fill:#459ed1;stroke:#459ed1;stroke-miterlimit:10;stroke-width:.75px;}</style></defs><g id="Layer_1-2"><g><path class="cls-1" d="M6.76,4.2h4.25s25.55,0,25.55,0c1.33,0,2.59,.52,3.55,1.46,.95,.94,1.47,2.19,1.47,3.53,0,2.77-2.25,5.02-5.02,5.02h-3.65v-3.41c0-.24-.15-.46-.37-.55-.22-.1-.48-.04-.65,.13l-4,4c-.23,.23-.23,.61,0,.84l4.01,4c.11,.11,.26,.17,.42,.17,.08,0,.16-.02,.23-.05,.22-.09,.37-.31,.37-.55v-3.4h3.65c3.43,0,6.21-2.79,6.21-6.21,0-1.66-.65-3.21-1.82-4.38-1.18-1.17-2.74-1.81-4.39-1.81h0s-29.81,0-29.81,0C6.48,1.51,5.17,.38,3.6,.38,1.82,.38,.38,1.82,.38,3.6s1.45,3.23,3.23,3.23c1.57,0,2.88-1.14,3.16-2.63h0Zm24.95,13.17l-2.56-2.56,2.56-2.56v5.11ZM1.56,3.6c0-1.12,.91-2.03,2.03-2.03s2.03,.91,2.03,2.03-.91,2.03-2.03,2.03-2.03-.91-2.03-2.03Z"/><path class="cls-1" d="M42.18,22.79c-1.78,0-3.23,1.45-3.23,3.23s1.45,3.23,3.23,3.23,3.23-1.45,3.23-3.23-1.45-3.23-3.23-3.23Zm0,5.26c-1.12,0-2.03-.91-2.03-2.03s.91-2.03,2.03-2.03,2.03,.91,2.03,2.03c0,1.12-.91,2.03-2.03,2.03Z"/><path class="cls-1" d="M33.18,21.59c-.17-.17-.43-.22-.65-.13-.22,.09-.37,.31-.37,.55v3.4H9.21c-2.76,0-5-2.24-5-4.99,0-1.32,.52-2.58,1.46-3.54,.96-.95,2.21-1.46,3.55-1.46h10.52c.28,1.49,1.59,2.62,3.16,2.62,1.78,0,3.23-1.45,3.23-3.23s-1.45-3.23-3.23-3.23c-1.58,0-2.89,1.14-3.16,2.63h-4.26s-6.25,0-6.25,0h0c-1.65,0-3.21,.65-4.4,1.82-1.17,1.19-1.81,2.75-1.81,4.39,0,3.41,2.78,6.19,6.2,6.19h22.96v3.41c0,.24,.15,.46,.37,.55,.07,.03,.15,.05,.23,.05,.16,0,.31-.06,.42-.17l4-4c.23-.23,.23-.61,0-.84l-4.01-4.01Zm-10.3-8.82c1.12,0,2.03,.91,2.03,2.03s-.91,2.03-2.03,2.03-2.03-.91-2.03-2.03,.91-2.03,2.03-2.03Zm10.47,15.8v-5.12l2.56,2.56-2.56,2.56Z"/></g></g></svg>