<svg xmlns="http://www.w3.org/2000/svg" viewBox="0 0 591.07 140.8"><defs><style>.cls-1{fill:#449dd2;}.cls-2{fill:#0f0c52;}</style></defs><g id="Layer_2" data-name="Layer 2"><g id="Layer_1-2" data-name="Layer 1"><path class="cls-1" d="M93.51,31.15a17.57,17.57,0,0,1-5.28-12.93A17.59,17.59,0,0,1,93.51,5.28a18.5,18.5,0,0,1,25.88,0,17.59,17.59,0,0,1,5.28,12.94,17.57,17.57,0,0,1-5.28,12.93,18.5,18.5,0,0,1-25.88,0Z"/><path class="cls-2" d="M81.7,36.26v75.18H60.1V73.37H21.61v38.07H0V14.66H21.61V55.09H60.1V14.66Z"/><polygon class="cls-2" points="116.83 68.37 116.83 111.44 96.07 111.44 96.07 47.61 116.83 68.37"/><path class="cls-2" d="M199.56,100.64A41.64,41.64,0,0,1,170,112.55q-17,0-28-10.45t-11.07-28q0-17.58,11.28-28a38.07,38.07,0,0,1,26.66-10.38q15.36,0,26.1,9.27t10.73,25.48V81.54H151.38a14.81,14.81,0,0,0,6.37,10,20.4,20.4,0,0,0,12.18,3.87q10.94,0,18-7.33ZM179.63,56.48a15.76,15.76,0,0,0-10.46-3.61,18.7,18.7,0,0,0-11.28,3.74,14.34,14.34,0,0,0-6,10.11h32.68Q183.92,60.08,179.63,56.48Z"/><path class="cls-2" d="M245.87,112.55q-13.23,0-23.61-11.21T211.87,73.51q0-16.62,10.11-27.21t23.68-10.59q13.58,0,22.15,9.55V8.71h20.77V111.44H267.81v-9.83Q259.1,112.56,245.87,112.55ZM232.78,74.34q0,9,5.4,14.74a16.79,16.79,0,0,0,12.6,5.75A15.76,15.76,0,0,0,263,89.08q5.06-5.74,5-14.81t-5-15.09a15.59,15.59,0,0,0-12.4-6q-7.33,0-12.6,6.09A22.35,22.35,0,0,0,232.78,74.34Z"/><path class="cls-2" d="M343.94,35.71q13.57,0,23.68,10.59t10.11,27.21q0,16.6-10.39,27.83t-23.6,11.21q-13.23,0-21.95-10.94v9.83H301V8.71h20.77V45.26Q330.37,35.71,343.94,35.71ZM321.51,74.27q0,9.06,5.06,14.81a15.73,15.73,0,0,0,12.25,5.75,16.79,16.79,0,0,0,12.6-5.75q5.4-5.74,5.4-14.74a22.3,22.3,0,0,0-5.26-15.1q-5.26-6.09-12.6-6.09a15.56,15.56,0,0,0-12.39,6Q321.52,65.19,321.51,74.27Z"/><path class="cls-2" d="M452.62,100.64a41.64,41.64,0,0,1-29.56,11.91q-17,0-28-10.45T384,74.06q0-17.58,11.28-28a38.07,38.07,0,0,1,26.66-10.38q15.36,0,26.1,9.27t10.73,25.48V81.54H404.44a14.81,14.81,0,0,0,6.37,10A20.4,20.4,0,0,0,423,95.38q11,0,18-7.33ZM432.69,56.48a15.76,15.76,0,0,0-10.46-3.61A18.7,18.7,0,0,0,411,56.61a14.34,14.34,0,0,0-6,10.11h32.68Q437,60.08,432.69,56.48Z"/><path class="cls-2" d="M504.12,55.23q-9.27,0-13.85,6.58t-4.56,17.37v32.26H464.94V37h20.77v9.83a34.87,34.87,0,0,1,10-7.75A27.34,27.34,0,0,1,508,35.71l.14,19.52Z"/><path class="cls-2" d="M573.48,98.84A31.51,31.51,0,0,1,549,109.78a33.77,33.77,0,0,1-24.65-9.9q-10-9.9-10-26.44T524.67,46.3Q535,35.71,548.28,35.71t22,10.93V36.81h20.78v64.94a43.05,43.05,0,0,1-3.47,17.73,30.71,30.71,0,0,1-9.27,12.18,42.33,42.33,0,0,1-27.14,9.14,56.82,56.82,0,0,1-17-2.7,48.23,48.23,0,0,1-15.16-7.69l8-15.64q10.24,7.76,21.67,7.75t18.07-5.67Q573.47,111.17,573.48,98.84Zm-2.91-26.23q0-8.94-5-14.06a16.54,16.54,0,0,0-12.33-5.12,17.69,17.69,0,0,0-12.67,5.12q-5.33,5.13-5.33,14t5.2,14.33a16.78,16.78,0,0,0,12.67,5.47,16.27,16.27,0,0,0,12.46-5.4Q570.57,81.54,570.57,72.61Z"/></g></g></svg>