<?xml version="1.0" encoding="UTF-8"?><svg id="Layer_2" xmlns="http://www.w3.org/2000/svg" viewBox="0 0 40.31 39.76"><defs><style>.cls-1{fill:#459ed1;}</style></defs><g id="Layer_1-2"><g><path class="cls-1" d="M38.81,29.52l-11.42-7.11c-.08-.08-.25-.08-.34-.08l-7.87-.68-1.02-2.62,6.09-2.54c.42-.17,.76-.51,1.1-.85l1.95,.76c.08,0,.17,.08,.34,.08,.08,0,.25,0,.34-.08,.17-.08,.34-.25,.42-.51l3.55-9.22c.17-.42-.08-.93-.51-1.1l-6.01-2.37c-.17-.08-.42-.08-.68,0-.17,.08-.34,.25-.42,.51l-3.05,7.78-5.33,1.86-.68-1.69c-.51-1.35-1.61-2.37-2.88-2.88,.93-.93,1.52-2.2,1.52-3.64,0-2.88-2.28-5.16-5.16-5.16S3.62,2.28,3.62,5.16c0,2.2,1.35,4.06,3.3,4.82-1.44,1.44-2.03,3.55-1.18,5.5l3.89,9.9c1.1,2.79,3.81,4.57,6.77,4.48l9.73-.34,9.56,5.33c.42,.25,1.02,.42,1.52,.42,1.02,0,1.95-.51,2.54-1.35,.51-.68,.68-1.52,.51-2.37s-.68-1.52-1.44-2.03h0ZM25.61,5.16l4.48,1.69-2.96,7.61-1.1-.42c0-.42,0-.93-.17-1.35-.42-1.02-1.44-1.69-2.45-1.69l2.2-5.84Zm-20.39,0c0-1.95,1.52-3.47,3.47-3.47s3.47,1.52,3.47,3.47c0,1.61-1.1,2.96-2.62,3.38-.08,0-.17,0-.25,.08-.17,0-.42,.08-.59,.08-1.86-.08-3.47-1.61-3.47-3.55Zm33.07,27.83c-.42,.59-1.18,.76-1.86,.42l-9.73-5.41c-.17-.08-.25-.08-.42-.08l-9.98,.34c-2.28,.08-4.31-1.27-5.16-3.38l-3.89-9.9c-.68-1.86,.17-3.89,1.95-4.57,.08-.08,.25-.08,.42-.08,.08,0,.17,0,.34-.08,.17,0,.34-.08,.51-.08,1.44,0,2.71,.85,3.21,2.2l1.02,2.45c0,.08,.08,.08,.08,.17l.25,.25s.08,0,.08,.08c.08,0,.17,.08,.25,.08h.42l7.02-2.45c.59-.17,1.18,.08,1.44,.59,.08,.25,.08,.59,0,.85s-.34,.51-.59,.59l-7.11,2.96c-1.27,.51-2.71,.08-3.38-1.1l-1.69-2.71c-.25-.42-.76-.51-1.18-.25s-.51,.76-.25,1.18l1.69,2.71c.85,1.35,2.28,2.11,3.81,2.11,.34,0,.76-.08,1.1-.17l1.27,3.21c.08,.34,.42,.51,.68,.51l8.2,.68,11.17,6.94c.34,.17,.59,.51,.68,.93,0,.34-.08,.68-.34,1.02h0Z"/><path class="cls-1" d="M8.86,33.5l-3.38,4.91c-.25,.42-.17,.93,.25,1.18,.17,.08,.34,.17,.51,.17,.25,0,.51-.17,.68-.34l3.38-4.91,15.23-.93,8.54,5.24c.17,.08,.25,.08,.42,.08,.25,0,.59-.17,.76-.42,.25-.42,.08-.93-.25-1.18l-8.8-5.33c-.17-.08-.34-.17-.51-.08l-15.31,.93L1.59,12.1c-.17-.42-.68-.59-1.1-.42s-.59,.68-.42,1.1l8.8,20.72Z"/></g></g></svg>