<svg width="35" height="35" xmlns="http://www.w3.org/2000/svg"><path d="M35.01 17.408c0 9.607-7.788 17.395-17.395 17.395S.22 27.015.22 17.408 8.008.014 17.615.014 35.01 7.8 35.01 17.408zm-16.556-2.505c0-.288-.014-.577.005-.864.016-.253-.066-.35-.33-.347-.886.012-1.771.01-2.656.002-.237-.002-.325.071-.324.323.008 3.058.006 6.116 0 9.174 0 .22.047.313.292.31.916-.013 1.833-.005 2.75-.007.079 0 .158-.018.263-.031v-.387l.001-5.007c0-.442.079-.866.353-1.232.458-.612 1.071-.84 1.811-.674.677.152.98.658 1.096 1.29.05.274.067.555.068.833.006 1.597.003 3.193.003 4.79 0 .42.002.42.435.42.843 0 1.687-.012 2.53.007.3.006.392-.082.39-.383-.013-1.763.007-3.525-.016-5.287a6.747 6.747 0 0 0-.19-1.535c-.523-2.095-2.089-2.983-4.103-2.787-.984.096-1.757.598-2.378 1.392zm-5.01 3.716c0-1.514-.004-3.027.006-4.54.001-.275-.07-.393-.367-.388a91.88 91.88 0 0 1-2.625.002c-.262-.003-.367.072-.367.352.009 3.038.009 6.076 0 9.113 0 .285.102.347.365.343.864-.014 1.73-.02 2.593.003.324.008.405-.098.402-.406-.014-1.493-.006-2.986-.006-4.479zm.196-7.854c0-1.007-.766-1.735-1.837-1.744-1.08-.009-1.894.734-1.894 1.727 0 .986.806 1.736 1.859 1.729 1.079-.008 1.871-.733 1.872-1.712z" fill="#FFF" fill-rule="evenodd"/></svg>