<svg xmlns="http://www.w3.org/2000/svg" viewBox="0 0 114 31"><g clip-path="url(#clip0300)"><path d="M42.65 6.52h-6.28a.87.87 0 00-.86.73l-2.53 16.09a.52.52 0 00.51.6h3a.87.87 0 00.86-.74l.68-4.33a.87.87 0 01.86-.74h1.99c4.13 0 6.52-2 7.14-5.96.28-1.74.01-3.1-.8-4.05-.9-1.05-2.47-1.6-4.57-1.6zm.72 5.87c-.34 2.25-2.06 2.25-3.72 2.25h-.95l.66-4.2a.52.52 0 01.52-.44h.43c1.14 0 2.2 0 2.76.64.33.39.43.96.3 1.75zm18.03-.07h-3a.52.52 0 00-.52.44l-.13.84-.21-.3c-.65-.95-2.1-1.26-3.55-1.26-3.32 0-6.16 2.51-6.7 6.04a5.67 5.67 0 001.11 4.61c.92 1.08 2.23 1.53 3.78 1.53 2.68 0 4.16-1.72 4.16-1.72l-.13.83a.52.52 0 00.51.61h2.7a.87.87 0 00.87-.74l1.62-10.28a.52.52 0 00-.51-.6zm-4.19 5.84a3.35 3.35 0 01-3.39 2.87c-.87 0-1.57-.28-2.01-.8a2.55 2.55 0 01-.48-2.12 3.36 3.36 0 013.37-2.89c.85 0 1.55.28 2 .82.46.54.64 1.3.51 2.12zm20.19-5.84h-3.02a.87.87 0 00-.72.38l-4.17 6.13-1.76-5.89a.87.87 0 00-.84-.62h-2.96a.52.52 0 00-.5.69l3.33 9.76-3.13 4.41a.52.52 0 00.43.83h3.01a.87.87 0 00.72-.38l10.04-14.5a.52.52 0 00-.43-.81z" fill="#253B80"/><path d="M87.4 6.52h-6.28a.87.87 0 00-.86.73l-2.54 16.09a.52.52 0 00.52.6h3.22a.61.61 0 00.6-.51l.72-4.56a.87.87 0 01.86-.74h1.98c4.14 0 6.52-2 7.14-5.96.29-1.74.01-3.1-.8-4.05-.89-1.05-2.47-1.6-4.57-1.6zm.72 5.87c-.35 2.25-2.07 2.25-3.73 2.25h-.95l.67-4.2a.52.52 0 01.51-.44h.44c1.13 0 2.2 0 2.75.64.33.39.43.96.3 1.75zm18.02-.07h-3a.52.52 0 00-.52.44l-.13.84-.2-.3c-.66-.95-2.1-1.26-3.56-1.26-3.32 0-6.15 2.51-6.7 6.04a5.67 5.67 0 001.12 4.61c.91 1.08 2.22 1.53 3.78 1.53a5.75 5.75 0 004.16-1.72l-.14.84a.51.51 0 00.12.42.52.52 0 00.4.18h2.7a.87.87 0 00.87-.74l1.62-10.28a.51.51 0 00-.12-.42.54.54 0 00-.4-.18zm-4.19 5.85a3.35 3.35 0 01-3.38 2.86c-.87 0-1.57-.28-2.02-.8a2.56 2.56 0 01-.47-2.12 3.36 3.36 0 013.36-2.89c.86 0 1.55.29 2 .82.47.54.65 1.3.52 2.13zm7.73-11.21l-2.57 16.38a.51.51 0 00.12.42.52.52 0 00.4.18h2.58c.43 0 .8-.31.87-.74l2.53-16.08a.53.53 0 00-.3-.56.52.52 0 00-.21-.04h-2.9a.52.52 0 00-.52.44z" fill="#179BD7"/><path d="M6.93 27.07l.48-3.05-1.07-.03h-5.1L4.77 1.51a.29.29 0 01.29-.25h8.6c2.86 0 4.83.6 5.86 1.77.48.55.79 1.13.94 1.76.15.66.16 1.46 0 2.42v.7l.48.27c.36.19.7.44.97.74.41.47.68 1.07.8 1.78.11.73.07 1.6-.12 2.58a9.09 9.09 0 01-1.05 2.92 6 6 0 01-3.93 2.85c-.83.22-1.78.33-2.82.33h-.67a2.03 2.03 0 00-2 1.7l-.04.27-.85 5.37-.04.2c0 .06-.03.1-.05.11a.14.14 0 01-.09.04H6.93z" fill="#253B80"/><path d="M21.4 7.36l-.09.5c-1.13 5.83-5.01 7.84-9.97 7.84H8.82c-.61 0-1.12.44-1.22 1.04l-1.29 8.2-.37 2.32a.65.65 0 00.64.74h4.48c.53 0 .98-.38 1.06-.9l.05-.23.84-5.35.05-.3c.09-.52.54-.9 1.07-.9h.67c4.34 0 7.73-1.76 8.72-6.86.42-2.13.2-3.9-.9-5.16-.34-.38-.76-.7-1.22-.94z" fill="#179BD7"/><path d="M20.21 6.88a14.02 14.02 0 00-3.33-.4h-6.74a1.07 1.07 0 00-1.06.9l-1.44 9.1-.04.26a1.23 1.23 0 011.21-1.04h2.53c4.96 0 8.84-2.01 9.97-7.84l.1-.5a6.05 6.05 0 00-1.2-.48z" fill="#222D65"/><path d="M9.08 7.39a1.07 1.07 0 011.06-.91h6.75c.8 0 1.54.05 2.22.16.46.07.92.18 1.36.32.33.11.65.25.93.4.34-2.16 0-3.62-1.16-4.95C18.95.95 16.64.32 13.67.32h-8.6c-.6 0-1.12.44-1.22 1.04L.27 24.08a.74.74 0 00.73.85H6.3l1.33-8.46L9.08 7.4z" fill="#253B80"/></g><defs><clipPath id="clip0300"><path fill="#fff" transform="translate(.26 .32)" d="M0 0h113.74v30.27H0z"/></clipPath></defs></svg>
