<svg width="36" height="35" xmlns="http://www.w3.org/2000/svg"><path d="M35.35 17.47c0 9.64-7.815 17.454-17.455 17.454-9.64 0-17.454-7.815-17.454-17.455C.44 7.83 8.255.015 17.895.015S35.35 7.829 35.35 17.469zm-13.7-6.56l-.418.05c-.27.06-.528.134-.76.235-.971.423-1.633 1.213-1.938 2.309-.121.436-.17 1.164-.017 1.615a6.514 6.514 0 0 1-1.537-.201c-1.808-.447-2.934-1.05-4.184-2.033a6.298 6.298 0 0 1-1.02-.979c-.093-.117-.241-.22-.308-.36a.395.395 0 0 1-.017-.008c-.145.27-.415.611-.5.943-.34 1.309.33 2.359.901 3.073.173.216.454.35.627.552h.016c-.13.048-.355-.019-.467-.042a3.74 3.74 0 0 1-.719-.2l-.35-.168c-.006 1.445.72 2.385 1.612 2.945.29.182.696.428 1.119.452-.226.191-1.193.103-1.529.066.42 1.086 1.064 1.808 2.172 2.2.286.102.634.192 1.019.185-.204.243-.64.442-.927.61-.593.349-1.28.575-2.055.745a4.73 4.73 0 0 1-.977.109c-.377.005-.762-.032-1.094-.042l.3.184c.306.187.625.35.97.502.62.273 1.28.479 2.012.661 1.476.368 3.557.203 4.844-.2 3.587-1.123 5.852-3.745 6.707-7.606.147-.664.169-1.418.159-2.208l.535-.427a5.54 5.54 0 0 0 1.16-1.338v-.009c-.581.183-1.194.52-1.937.527v-.008c.145-.057.26-.178.376-.268.521-.404.964-.903 1.214-1.583-.142.078-.387.124-.53.203-.438.223-1.181.544-1.753.594-.675-.618-1.38-1.103-2.707-1.08z" fill="#FFF" fill-rule="evenodd"/></svg>