<svg xmlns="http://www.w3.org/2000/svg" width="65" height="25" viexBox="0 0 65 25"><path fill-rule="evenodd" clip-rule="evenodd" d="M64 12.04c0-4.53-2.18-8.1-6.35-8.1-4.2 0-6.73 3.57-6.73 8.06 0 5.32 3 8 7.3 8a9.8 9.8 0 004.87-1.14v-3.54c-1.2.6-2.57.98-4.32.98-1.7 0-3.22-.6-3.41-2.69h8.61c0-.23.04-1.15.04-1.57zm-8.7-1.68c0-2 1.22-2.83 2.33-2.83 1.07 0 2.22.83 2.22 2.83H55.3zM44.11 3.95c-1.72 0-2.83.8-3.45 1.37l-.23-1.1h-3.88v20.6l4.4-.93.03-5a4.95 4.95 0 003.12 1.12c3.15 0 6.02-2.55 6.02-8.15-.02-5.12-2.92-7.91-6-7.91zm-1.05 12.17a2.63 2.63 0 01-2.08-.83l-.02-6.56c.46-.5 1.1-.86 2.1-.86 1.6 0 2.71 1.8 2.71 4.11 0 2.37-1.1 4.14-2.71 4.14z" fill="#32325D"/><path d="M34.91 4.24H30.5V19.7h4.42V4.24z" fill="#32325D"/><path fill-rule="evenodd" clip-rule="evenodd" d="M25.75 5.55l-.28-1.3h-3.8V19.7h4.4V9.23c1.04-1.36 2.8-1.12 3.35-.92V4.25c-.57-.22-2.63-.6-3.67 1.3zM16.94.41l-4.3.92-.02 14.15a4.43 4.43 0 004.57 4.54c1.44 0 2.5-.26 3.08-.58v-3.59c-.56.23-3.35 1.04-3.35-1.57V8h3.35V4.24h-3.35l.02-3.83zM5.03 8.73c0-.69.56-.95 1.5-.95 1.33 0 3.03.4 4.37 1.13V4.76a11.6 11.6 0 00-4.37-.81c-3.58 0-5.96 1.87-5.96 5 0 4.87 6.7 4.1 6.7 6.2 0 .8-.7 1.07-1.7 1.07-1.46 0-3.33-.6-4.8-1.4v4.2c1.63.7 3.29 1 4.8 1 3.67 0 6.19-1.82 6.19-4.98-.02-5.26-6.73-4.33-6.73-6.3z" fill="#32325D"/></svg>
