<?xml version="1.0" encoding="UTF-8"?><svg id="Layer_2" xmlns="http://www.w3.org/2000/svg" viewBox="0 0 45.03 42.7"><defs><style>.cls-1{fill:#459ed1;}</style></defs><g id="Layer_1-2"><path class="cls-1" d="M41.37,0H3.7C1.66,0,0,1.66,0,3.7V12.81c0,2.04,1.66,3.7,3.7,3.7h15.28v11.48l-1.61-1.61c-1.19-1.19-3.04-1.38-4.46-.43-.81,.57-1.38,1.42-1.52,2.42-.14,1,.14,1.99,.76,2.75l6.45,7.78c2.04,2.42,4.98,3.8,8.11,3.8h4.03c2.51,0,4.84-.95,6.59-2.75,1.8-1.76,2.75-4.08,2.75-6.59v-7.97c0-1.9-1.57-3.46-3.46-3.46-.57,0-1.14,.14-1.66,.43-.62-1.14-1.76-1.85-3.08-1.85-.57,0-1.14,.14-1.66,.43-.62-1.14-1.76-1.85-3.08-1.85-.43,0-.85,.09-1.23,.24v-2.75h15.42c2.04,0,3.7-1.66,3.7-3.7V3.7C45.07,1.66,43.41,0,41.37,0h0Zm-11.81,26.66c.62,0,1.14-.52,1.14-1.14v-1.57c0-.66,.57-1.23,1.23-1.23s1.23,.57,1.23,1.23v2.99c0,.62,.52,1.14,1.14,1.14s1.14-.52,1.14-1.14v-1.57c0-.66,.57-1.23,1.23-1.23s1.23,.57,1.23,1.23v7.97c0,1.9-.76,3.7-2.09,5.03-1.33,1.33-3.13,2.09-5.03,2.09h-4.03c-2.47,0-4.79-1.09-6.36-2.99l-6.5-7.83c-.24-.28-.33-.62-.28-1,.05-.38,.24-.66,.57-.85,.19-.14,.47-.24,.71-.24,.33,0,.66,.14,.9,.38l2.61,2.56c.47,.47,1.19,.62,1.8,.38,.62-.24,1.04-.85,1.04-1.57V12.62c0-.66,.57-1.23,1.23-1.23,.33,0,.66,.14,.85,.38,.24,.24,.38,.57,.38,.85v11.48c0,.62,.52,1.14,1.14,1.14s1.14-.52,1.14-1.14v-1.57c0-.66,.57-1.23,1.23-1.23s1.23,.57,1.23,1.23v2.99c-.05,.62,.43,1.14,1.09,1.14h0Zm13.14-13.85c0,.76-.62,1.38-1.33,1.38h-15.42s0-1.57,0-1.57c0-.95-.38-1.8-1.04-2.47s-1.52-1-2.47-1c-1.9,0-3.46,1.57-3.46,3.46v1.57H3.7c-.76,0-1.33-.62-1.33-1.38V3.7c0-.76,.62-1.38,1.33-1.38H41.37c.76,0,1.33,.62,1.33,1.38V12.81Z"/></g></svg>