<svg width="35px" height="33px" viewBox="0 0 35 33" version="1.1"
                                        xmlns="http://www.w3.org/2000/svg" xmlns:xlink="http://www.w3.org/1999/xlink">
                                        <!-- Generator: Sketch 53.2 (72643) - https://sketchapp.com -->
                                        <title>Analytics</title>
                                        <desc>Created with Sketch.</desc>
                                        <g id="Page-1" stroke="none" stroke-width="1" fill="none" fill-rule="evenodd">
                                            <g id="01-Home" transform="translate(-578.000000, -819.000000)">
                                                <g id="GROW" transform="translate(578.000000, 819.000000)">
                                                    <path
                                                        d="M29.0382,6.5378 L25.6062,0.7348 C25.1842,0.0218 24.2662,-0.2102 23.5532,0.2068 L17.8312,3.5828 C17.1182,4.0038 16.8812,4.9238 17.3022,5.6378 C17.7252,6.3508 18.6462,6.5858 19.3562,6.1668 L22.2402,4.4648 C21.1822,8.5328 18.8392,12.1118 15.4762,14.6928 C11.5162,17.7328 6.6252,19.0228 1.7092,18.3368 C0.8862,18.2278 0.1312,18.7938 0.0152,19.6128 C-0.1008,20.4338 0.4712,21.1918 1.2912,21.3078 C2.2992,21.4488 3.3052,21.5188 4.3042,21.5188 C8.9802,21.5188 13.5102,19.9848 17.3042,17.0718 C21.0852,14.1698 23.7442,10.1758 25.0192,5.6378 L26.4562,8.0648 C26.7362,8.5388 27.2352,8.8018 27.7482,8.8018 C28.0082,8.8018 28.2712,8.7338 28.5112,8.5928 C29.2242,8.1708 29.4602,7.2508 29.0382,6.5378"
                                                        id="Fill-1" fill="#195ED0"></path>
                                                    <path
                                                        d="M7.2423,32.7937 C6.1383,32.7937 5.2423,31.8977 5.2423,30.7937 L5.2423,30.4887 C5.2423,29.3847 6.1383,28.4887 7.2423,28.4887 C8.3463,28.4887 9.2423,29.3847 9.2423,30.4887 L9.2423,30.7937 C9.2423,31.8977 8.3463,32.7937 7.2423,32.7937"
                                                        id="Fill-3" fill="#BBC9FE"></path>
                                                    <path
                                                        d="M15.7218,32.7937 C14.6178,32.7937 13.7218,31.8977 13.7218,30.7937 L13.7218,24.3437 C13.7218,23.2387 14.6178,22.3437 15.7218,22.3437 C16.8258,22.3437 17.7218,23.2387 17.7218,24.3437 L17.7218,30.7937 C17.7218,31.8977 16.8258,32.7937 15.7218,32.7937"
                                                        id="Fill-5" fill="#BBC9FE"></path>
                                                    <path
                                                        d="M24.2013,32.7937 C23.0973,32.7937 22.2013,31.8977 22.2013,30.7937 L22.2013,19.9527 C22.2013,18.8487 23.0973,17.9527 24.2013,17.9527 C25.3053,17.9527 26.2013,18.8487 26.2013,19.9527 L26.2013,30.7937 C26.2013,31.8977 25.3053,32.7937 24.2013,32.7937"
                                                        id="Fill-7" fill="#BBC9FE"></path>
                                                    <path
                                                        d="M32.6828,32.7937 C31.5778,32.7937 30.6828,31.8977 30.6828,30.7937 L30.6828,13.5567 C30.6828,12.4517 31.5778,11.5567 32.6828,11.5567 C33.7868,11.5567 34.6828,12.4517 34.6828,13.5567 L34.6828,30.7937 C34.6828,31.8977 33.7868,32.7937 32.6828,32.7937"
                                                        id="Fill-9" fill="#BBC9FE"></path>
                                                </g>
                                            </g>
                                        </g>
</svg>