<svg width="41px" height="28px" viewBox="0 0 41 28" version="1.1"
                                        xmlns="http://www.w3.org/2000/svg" xmlns:xlink="http://www.w3.org/1999/xlink">
                                        <!-- Generator: Sketch 53.2 (72643) - https://sketchapp.com -->
                                        <title>Projects Consulting</title>
                                        <desc>Created with Sketch.</desc>
                                        <g id="Page-1" stroke="none" stroke-width="1" fill="none" fill-rule="evenodd">
                                            <g id="01-Home" transform="translate(-189.000000, -826.000000)">
                                                <g id="FUND" transform="translate(189.000000, 826.000000)">
                                                    <path
                                                        d="M30.9394,27.458 L3.0004,27.458 C1.3494,27.458 0.0004,26.108 0.0004,24.458 L0.0004,9.252 C0.0004,7.602 1.3494,6.252 3.0004,6.252 L30.9394,6.252 C32.5884,6.252 33.9394,7.602 33.9394,9.252 L33.9394,24.458 C33.9394,26.108 32.5884,27.458 30.9394,27.458"
                                                        id="Fill-1" fill="#266ADF"></path>
                                                    <path
                                                        d="M21.4697,16.855 C21.4697,19.34 19.4547,21.355 16.9697,21.355 C14.4847,21.355 12.4697,19.34 12.4697,16.855 C12.4697,14.37 14.4847,12.355 16.9697,12.355 C19.4547,12.355 21.4697,14.37 21.4697,16.855"
                                                        id="Fill-3" fill="#FFFFFF"></path>
                                                    <path
                                                        d="M38.1914,21.4736 C37.0874,21.4736 36.1914,20.5776 36.1914,19.4736 L36.1914,7.9996 C36.1914,5.7946 34.3974,3.9996 32.1914,3.9996 L7.9844,3.9996 C6.8794,3.9996 5.9844,3.1046 5.9844,1.9996 C5.9844,0.8956 6.8794,-0.0004 7.9844,-0.0004 L32.1914,-0.0004 C36.6024,-0.0004 40.1914,3.5886 40.1914,7.9996 L40.1914,19.4736 C40.1914,20.5776 39.2954,21.4736 38.1914,21.4736"
                                                        id="Fill-5" fill="#BBC9FE"></path>
                                                </g>
                                            </g>
                                        </g>
</svg>