<svg width="35px" height="33px" viewBox="0 0 35 33" version="1.1"
                                        xmlns="http://www.w3.org/2000/svg" xmlns:xlink="http://www.w3.org/1999/xlink">
                                        <!-- Generator: Sketch 53.2 (72643) - https://sketchapp.com -->
                                        <title>Development</title>
                                        <desc>Created with Sketch.</desc>
                                        <g id="Page-1" stroke="none" stroke-width="1" fill="none" fill-rule="evenodd">
                                            <g id="01-Home" transform="translate(-970.000000, -819.000000)">
                                                <g id="MANAGE" transform="translate(970.000000, 819.000000)">
                                                    <path
                                                        d="M12.7822,35.4523 C12.3722,35.4523 11.9782,35.2863 11.6912,34.9913 C11.3812,34.6713 11.2262,34.2313 11.2692,33.7883 C11.3422,33.0353 10.7272,30.8993 10.0232,29.0033 L5.7242,29.0033 C4.1782,29.0033 2.9232,27.7463 2.9232,26.2023 L2.9232,21.9533 L1.5192,21.9533 C0.9352,21.9533 0.4022,21.6183 0.1502,21.0933 C-0.1028,20.5663 -0.0318,19.9413 0.3322,19.4853 C0.8932,18.7183 2.9492,13.4833 2.9492,12.3393 C2.9492,5.5353 8.4852,0.0003 15.2882,0.0003 C22.0922,0.0003 27.6282,5.5353 27.6282,12.3393 C27.6282,13.6473 27.4242,14.9373 27.0212,16.1713 C25.9212,20.6313 26.0902,24.7233 27.5352,28.6823 C27.7232,29.1983 27.6202,29.7753 27.2622,30.1923 C25.7872,31.9153 18.2732,35.1003 12.8802,35.4493 C12.8472,35.4513 12.8142,35.4523 12.7822,35.4523"
                                                        id="Fill-1" fill="#BBC9FE"></path>
                                                    <path
                                                        d="M28.2597,21.6237 L24.2267,21.6237 C23.6307,21.6237 23.1507,21.1417 23.1507,20.5477 L23.1507,19.0907 C22.7127,18.8917 22.2957,18.6497 21.9027,18.3667 L20.6377,19.0967 C20.1227,19.3937 19.4647,19.2177 19.1677,18.7027 L17.1527,15.2127 C17.0087,14.9657 16.9717,14.6717 17.0447,14.3957 C17.1177,14.1197 17.2987,13.8847 17.5457,13.7417 L18.8057,13.0167 C18.7817,12.7767 18.7707,12.5347 18.7707,12.2907 C18.7707,12.0457 18.7817,11.8037 18.8057,11.5657 L17.5457,10.8397 C17.2987,10.6977 17.1177,10.4617 17.0447,10.1857 C16.9717,9.9107 17.0087,9.6167 17.1527,9.3697 L19.1677,5.8787 C19.4647,5.3637 20.1227,5.1877 20.6377,5.4847 L21.9027,6.2147 C22.2957,5.9327 22.7127,5.6907 23.1507,5.4907 L23.1507,4.0347 C23.1507,3.4397 23.6307,2.9577 24.2267,2.9577 L28.2597,2.9577 C28.8547,2.9577 29.3357,3.4397 29.3357,4.0347 L29.3357,5.4907 C29.7747,5.6907 30.1917,5.9327 30.5847,6.2147 L31.8477,5.4847 C32.3597,5.1877 33.0197,5.3637 33.3187,5.8787 L35.3337,9.3697 C35.4767,9.6167 35.5147,9.9107 35.4417,10.1857 C35.3667,10.4617 35.1867,10.6967 34.9397,10.8397 L33.6827,11.5657 C33.7057,11.8067 33.7177,12.0487 33.7177,12.2907 C33.7177,12.5327 33.7057,12.7747 33.6827,13.0167 L34.9397,13.7427 C35.4547,14.0397 35.6307,14.6977 35.3337,15.2127 L33.3187,18.7027 C33.0197,19.2177 32.3627,19.3937 31.8477,19.0967 L30.5847,18.3677 C30.1917,18.6497 29.7747,18.8917 29.3357,19.0907 L29.3357,20.5477 C29.3357,21.1417 28.8547,21.6237 28.2597,21.6237"
                                                        id="Fill-4" fill="#266ADF"></path>
                                                    <path
                                                        d="M29.2431,12.2906 C29.2431,10.6336 27.9001,9.2906 26.2421,9.2906 C24.5861,9.2906 23.2431,10.6336 23.2431,12.2906 C23.2431,13.9476 24.5861,15.2906 26.2421,15.2906 C27.9001,15.2906 29.2431,13.9476 29.2431,12.2906"
                                                        id="Fill-7" fill="#FFFFFF"></path>
                                                </g>
                                            </g>
                                        </g>
</svg>